<svg width="29" height="27" viewBox="0 0 29 27" fill="none" xmlns="http://www.w3.org/2000/svg">
<path d="M2.19899 25.361H27.364M24.5679 25.361V19.7684M24.5679 19.7684C25.3095 19.7684 26.0207 19.4738 26.5451 18.9494C27.0695 18.425 27.364 17.7137 27.364 16.9721V14.1758C27.364 13.4342 27.0695 12.723 26.5451 12.1985C26.0207 11.6741 25.3095 11.3795 24.5679 11.3795C23.8264 11.3795 23.1151 11.6741 22.5908 12.1985C22.0664 12.723 21.7718 13.4342 21.7718 14.1758V16.9721C21.7718 17.7137 22.0664 18.425 22.5908 18.9494C23.1151 19.4738 23.8264 19.7684 24.5679 19.7684ZM17.5776 25.361V5.78696C17.5776 4.67453 17.1357 3.60766 16.3492 2.82105C15.5626 2.03444 14.4958 1.59253 13.3835 1.59253H7.79122C6.67886 1.59253 5.61205 2.03444 4.82549 2.82105C4.03893 3.60766 3.59705 4.67453 3.59705 5.78696V25.361M10.5873 19.7684V25.361M9.18928 14.1758H11.9854M9.18928 8.58325H11.9854" stroke="white" stroke-width="2.79607" stroke-linecap="round" stroke-linejoin="round"/>
</svg>
