<svg width="34" height="34" viewBox="0 0 34 34" fill="none" xmlns="http://www.w3.org/2000/svg">
<path d="M5.58948 29.3588C7.19305 23.7382 8.36183 18.1359 8.38559 12.5811H16.7739C16.7977 18.1359 17.9665 23.7382 19.5701 29.3588" stroke="white" stroke-width="2.79607" stroke-linecap="round" stroke-linejoin="round"/>
<path d="M17.4791 18.1735H23.7703C23.8053 21.8254 25.0202 25.5781 26.5665 29.3586M12.5859 6.98836C12.9035 6.54585 13.324 6.18732 13.8112 5.94373C14.2983 5.70014 14.8374 5.57881 15.382 5.59021C15.9265 5.57881 16.4657 5.70014 16.9528 5.94373C17.44 6.18732 17.8605 6.54585 18.1781 6.98836C18.4957 7.43086 18.9162 7.78939 19.4034 8.03298C19.8905 8.27657 20.4297 8.39791 20.9742 8.3865C21.5188 8.39791 22.0579 8.27657 22.545 8.03298C23.0322 7.78939 23.4527 7.43086 23.7703 6.98836C24.0879 6.54585 24.5085 6.18732 24.9956 5.94373C25.4828 5.70014 26.0219 5.57881 26.5665 5.59021C27.111 5.57881 27.6501 5.70014 28.1373 5.94373C28.6244 6.18732 29.045 6.54585 29.3626 6.98836M4.19751 29.3586H30.7606" stroke="white" stroke-width="2.79607" stroke-linecap="round" stroke-linejoin="round"/>
</svg>
