<svg width="26" height="26" viewBox="0 0 26 26" fill="none" xmlns="http://www.w3.org/2000/svg">
<path d="M18.3672 4.38588H22.5614C22.9322 4.38588 23.2878 4.53319 23.55 4.79539C23.8122 5.05759 23.9595 5.41322 23.9595 5.78403V21.1636C23.9595 21.9052 23.6649 22.6165 23.1405 23.1409C22.6161 23.6653 21.9049 23.9599 21.1633 23.9599M21.1633 23.9599C20.4218 23.9599 19.7106 23.6653 19.1862 23.1409C18.6618 22.6165 18.3672 21.9052 18.3672 21.1636V2.98774C18.3672 2.61693 18.2199 2.26131 17.9577 1.99911C17.6956 1.7369 17.34 1.5896 16.9692 1.5896H2.98857C2.61779 1.5896 2.26218 1.7369 2 1.99911C1.73781 2.26131 1.59052 2.61693 1.59052 2.98774V19.7655C1.59052 20.8779 2.0324 21.9448 2.81896 22.7314C3.60552 23.518 4.67233 23.9599 5.78469 23.9599H21.1633ZM7.18275 7.18217H12.775M7.18275 12.7747H12.775M7.18275 18.3673H12.775" stroke="white" stroke-width="2.79607" stroke-linecap="round" stroke-linejoin="round"/>
</svg>
