<svg width="34" height="34" viewBox="0 0 34 34" fill="none" xmlns="http://www.w3.org/2000/svg">
<path d="M16.7798 18.5122C17.8924 18.5122 18.9594 18.0702 19.7461 17.2835C20.5328 16.4968 20.9748 15.4298 20.9748 14.3172C20.9748 13.2046 20.5328 12.1376 19.7461 11.3509C18.9594 10.5642 17.8924 10.1222 16.7798 10.1222C15.6672 10.1222 14.6002 10.5642 13.8135 11.3509C13.0267 12.1376 12.5848 13.2046 12.5848 14.3172C12.5848 15.4298 13.0267 16.4968 13.8135 17.2835C14.6002 18.0702 15.6672 18.5122 16.7798 18.5122Z" stroke="white" stroke-width="2.79667" stroke-linecap="round" stroke-linejoin="round"/>
<path d="M16.7798 4.52881C26.8478 4.52881 29.3648 7.04581 29.3648 17.1138C29.3648 27.1818 26.8478 29.6988 16.7798 29.6988C6.71176 29.6988 4.19476 27.1818 4.19476 17.1138C4.19476 7.04581 6.71176 4.52881 16.7798 4.52881Z" stroke="white" stroke-width="2.79667" stroke-linecap="round" stroke-linejoin="round"/>
<path d="M8.38977 28.3704V28.3005C8.38977 26.817 8.97907 25.3944 10.028 24.3454C11.077 23.2965 12.4997 22.7072 13.9831 22.7072H19.5764C21.0599 22.7072 22.4826 23.2965 23.5315 24.3454C24.5805 25.3944 25.1698 26.817 25.1698 28.3005V28.3704" stroke="white" stroke-width="2.79667" stroke-linecap="round" stroke-linejoin="round"/>
</svg>
