<svg width="29" height="29" viewBox="0 0 29 29" fill="none" xmlns="http://www.w3.org/2000/svg">
<path d="M21.7653 9.98138L18.9692 1.59253M7.7847 9.98138L10.5808 1.59253M16.1731 23.9628H8.12583C7.12397 23.9628 6.15523 23.6041 5.3949 22.9517C4.63456 22.2992 4.13286 21.3962 3.98058 20.4059L2.22602 10.4064C2.16474 10.0079 2.19035 9.60089 2.3011 9.21322C2.41185 8.82556 2.60512 8.46642 2.86765 8.16045C3.13018 7.85447 3.45577 7.60889 3.8221 7.44054C4.18843 7.27219 4.58682 7.18505 4.98998 7.1851H24.5614C24.9646 7.18505 25.363 7.27219 25.7293 7.44054C26.0956 7.60889 26.4212 7.85447 26.6837 8.16045C26.9463 8.46642 27.1395 8.82556 27.2503 9.21322C27.361 9.60089 27.3866 10.0079 27.3254 10.4064" stroke="white" stroke-width="2.79607" stroke-linecap="round" stroke-linejoin="round"/>
<path d="M27.3602 16.9725H23.865C23.3089 16.9725 22.7755 17.1935 22.3822 17.5868C21.9889 17.9801 21.7679 18.5135 21.7679 19.0697C21.7679 19.6259 21.9889 20.1594 22.3822 20.5527C22.7755 20.946 23.3089 21.1669 23.865 21.1669H25.2631C25.8193 21.1669 26.3527 21.3879 26.746 21.7812C27.1392 22.1745 27.3602 22.7079 27.3602 23.2641C27.3602 23.8204 27.1392 24.3538 26.746 24.7471C26.3527 25.1404 25.8193 25.3614 25.2631 25.3614H21.7679M24.5641 25.3614V26.7595M24.5641 15.5744V16.9725M11.9815 15.5744C11.9815 16.316 12.2761 17.0272 12.8005 17.5516C13.3249 18.076 14.0361 18.3706 14.7777 18.3706C15.5192 18.3706 16.2304 18.076 16.7548 17.5516C17.2792 17.0272 17.5738 16.316 17.5738 15.5744C17.5738 14.8327 17.2792 14.1215 16.7548 13.5971C16.2304 13.0727 15.5192 12.7781 14.7777 12.7781C14.0361 12.7781 13.3249 13.0727 12.8005 13.5971C12.2761 14.1215 11.9815 14.8327 11.9815 15.5744Z" stroke="white" stroke-width="2.79607" stroke-linecap="round" stroke-linejoin="round"/>
</svg>
