<svg width="18" height="18" viewBox="0 0 18 18" fill="none" xmlns="http://www.w3.org/2000/svg">
    <path
        d="M15.0875 0.666992H2.91263C1.67229 0.666992 0.666748 1.67249 0.666748 2.91288V15.0878C0.666748 16.3282 1.67225 17.3337 2.91263 17.3337H8.91721L8.92745 11.3779H7.38014C7.17905 11.3779 7.01585 11.2153 7.01507 11.0142L7.00765 9.09445C7.00688 8.89226 7.17057 8.72795 7.37276 8.72795H8.91725V6.87294C8.91725 4.72022 10.232 3.54805 12.1524 3.54805H13.7282C13.9298 3.54805 14.0933 3.7115 14.0933 3.91316V5.53194C14.0933 5.73351 13.9299 5.89692 13.7284 5.89704L12.7613 5.89749C11.717 5.89749 11.5147 6.39376 11.5147 7.12206V8.72799H13.8096C14.0282 8.72799 14.1979 8.91893 14.1721 9.13607L13.9445 11.0559C13.9228 11.2396 13.767 11.378 13.582 11.378H11.525L11.5147 17.3338H15.0876C16.3279 17.3338 17.3334 16.3283 17.3334 15.0879V2.91288C17.3334 1.67249 16.3279 0.666992 15.0875 0.666992Z"
        fill="black" />
</svg>    