<svg width="18" height="18" viewBox="0 0 18 18" fill="none" xmlns="http://www.w3.org/2000/svg">
    <path
        d="M12.3683 0.666992H5.63184C2.89408 0.666992 0.666748 2.89432 0.666748 5.63208V12.3686C0.666748 15.1063 2.89408 17.3337 5.63184 17.3337H12.3683C15.1061 17.3337 17.3334 15.1063 17.3334 12.3686V5.63208C17.3334 2.89432 15.1061 0.666992 12.3683 0.666992ZM15.6567 12.3686C15.6567 14.1847 14.1845 15.657 12.3683 15.657H5.63184C3.81571 15.657 2.34341 14.1847 2.34341 12.3686V5.63208C2.34341 3.81592 3.81571 2.34366 5.63184 2.34366H12.3683C14.1845 2.34366 15.6567 3.81592 15.6567 5.63208V12.3686Z"
        fill="black" />
    <path
        d="M9.00005 4.68945C6.62318 4.68945 4.68945 6.62318 4.68945 9.00002C4.68945 11.3768 6.62318 13.3106 9.00005 13.3106C11.3769 13.3106 13.3106 11.3769 13.3106 9.00002C13.3106 6.62315 11.3769 4.68945 9.00005 4.68945ZM9.00005 11.634C7.54536 11.634 6.36612 10.4547 6.36612 9.00005C6.36612 7.54536 7.54539 6.36612 9.00005 6.36612C10.4547 6.36612 11.634 7.54536 11.634 9.00005C11.634 10.4547 10.4547 11.634 9.00005 11.634Z"
        fill="black" />
    <path
        d="M13.319 5.75502C13.8895 5.75502 14.3519 5.29257 14.3519 4.72212C14.3519 4.15166 13.8895 3.68921 13.319 3.68921C12.7486 3.68921 12.2861 4.15166 12.2861 4.72212C12.2861 5.29257 12.7486 5.75502 13.319 5.75502Z"
        fill="black" />
</svg>    