<svg width="18" height="18" viewBox="0 0 18 18" fill="none" xmlns="http://www.w3.org/2000/svg">
    <path d="M4.39383 5.875H0.666748V17.3333H4.39383V5.875Z" fill="black" />
    <path
        d="M14.5458 6.00938C14.5062 5.99688 14.4687 5.98333 14.4271 5.97187C14.3771 5.96042 14.3271 5.95104 14.276 5.94271C14.0781 5.90313 13.8615 5.875 13.6073 5.875C11.4344 5.875 10.0562 7.45521 9.60208 8.06562V5.875H5.875V17.3333H9.60208V11.0833C9.60208 11.0833 12.4187 7.16042 13.6073 10.0417C13.6073 12.6135 13.6073 17.3333 13.6073 17.3333H17.3333V9.60104C17.3333 7.86979 16.1469 6.42708 14.5458 6.00938Z"
        fill="black" />
    <path
        d="M2.48966 4.31283C3.49643 4.31283 4.31258 3.49668 4.31258 2.48991C4.31258 1.48314 3.49643 0.666992 2.48966 0.666992C1.4829 0.666992 0.666748 1.48314 0.666748 2.48991C0.666748 3.49668 1.4829 4.31283 2.48966 4.31283Z"
        fill="black" />
</svg>    