<svg width="912" height="107" viewBox="0 0 912 107" fill="none" xmlns="http://www.w3.org/2000/svg">
    <path d="M169.844 25.1497H189.193L176.081 100.029H156.733L169.844 25.1497Z"
        fill="url(#paint0_linear_92_2233)" />
    <path
        d="M205.188 25.1497H227.42L244.119 72.1629L252.335 25.1497H270.644L257.532 100.029H235.3L218.601 53.0155L210.386 100.029H192.076L205.188 25.1497Z"
        fill="url(#paint1_linear_92_2233)" />
    <path
        d="M286.673 25.1497H315.109C338.213 25.1497 351.425 40.4071 347.569 62.606C343.679 84.8048 325.135 100.062 302.031 100.062H273.595L286.707 25.1832L286.673 25.1497ZM304.747 84.5365C316.182 84.5365 325.604 75.5832 327.884 62.606C330.165 49.6287 323.861 40.6754 312.426 40.6754H303.339L295.66 84.5365H304.747Z"
        fill="url(#paint2_linear_92_2233)" />
    <path
        d="M357.192 62.606C361.25 39.4348 379.861 23.5066 402.965 23.5066C426.069 23.5066 439.114 39.4348 435.056 62.606C430.999 85.7773 412.388 101.705 389.283 101.705C366.179 101.705 353.135 85.7773 357.192 62.606ZM392.1 85.7102C403.535 85.7102 412.991 76.2875 415.372 62.606C417.753 48.9246 411.616 39.5018 400.182 39.5018C388.747 39.5018 379.291 48.9246 376.91 62.606C374.496 76.321 380.666 85.7102 392.1 85.7102Z"
        fill="url(#paint3_linear_92_2233)" />
    <path
        d="M447.765 25.1497H467.885L469.796 75.1808L488.775 25.1497H507.487L508.962 75.1808L528.378 25.1497H548.431L514.965 100.029H496.187L494.007 48.5556L473.82 100.029H455.042L447.698 25.1497H447.765Z"
        fill="url(#paint4_linear_92_2233)" />
    <path
        d="M560.1 25.1497H611.372L608.656 40.6754H576.733L574.185 55.2622H600.106L597.624 69.4802H571.703L569.054 84.5365H600.977L598.261 100.062H546.989L560.1 25.1832V25.1497Z"
        fill="url(#paint5_linear_92_2233)" />
    <path
        d="M624.752 25.1497H659.761C673.845 25.1497 682.16 32.5605 680.249 43.3581C678.807 51.5737 672.134 57.8443 662.778 60.3593C673.375 62.673 679.142 69.9832 677.432 79.7413C675.319 91.7461 663.282 100.029 647.823 100.029H611.607L624.718 25.1497H624.752ZM650.74 55.5641C655.703 55.5641 659.727 52.1437 660.599 47.1473C661.471 42.1509 658.855 38.7305 654.16 38.7305H641.753L638.803 55.5976H650.74V55.5641ZM646.985 86.4815C652.685 86.4815 657.279 82.5916 658.285 76.8575C659.291 71.1569 655.837 67.2335 649.935 67.2335H636.757L633.404 86.4815H647.018H646.985Z"
        fill="url(#paint6_linear_92_2233)" />
    <path
        d="M699.396 25.1497H727.832C750.936 25.1497 764.149 40.4071 760.293 62.606C756.403 84.8048 737.859 100.062 714.755 100.062H686.319L699.43 25.1832L699.396 25.1497ZM717.471 84.5365C728.906 84.5365 738.328 75.5832 740.608 62.606C742.889 49.6287 736.585 40.6754 725.15 40.6754H716.062L708.384 84.5365H717.471Z"
        fill="url(#paint7_linear_92_2233)" />
    <path
        d="M779.608 25.1497H830.879L828.163 40.6754H796.24L793.691 55.2622H819.612L817.131 69.4802H791.21L788.561 84.5365H820.484L817.768 100.062H766.496L779.608 25.1832V25.1497Z"
        fill="url(#paint8_linear_92_2233)" />
    <path
        d="M839.765 25.1497H860.724L865.888 81.4179L890.769 25.1497H911.66L875.176 100.029H850.027L839.765 25.1497Z"
        fill="url(#paint9_linear_92_2233)" />
    <path
        d="M142.179 30.012C139.765 12.709 124.876 0 107.405 0C80.7131 0 54.0213 0 27.329 0C23.2715 0 19.6502 1.27426 16.6993 4.09102C13.0107 7.64552 9.42266 11.3341 5.76757 14.9222C3.82266 16.8671 1.84431 18.7449 0 20.4886C4.29222 24.8144 8.34964 28.9054 12.5077 33.1306C16.7664 28.8384 21.0581 24.5461 25.3503 20.2204C27.1275 18.4096 29.1735 17.5713 31.6885 17.5713C56.8047 17.5713 81.9207 17.5713 107.037 17.5713C114.515 17.5713 121.02 21.7629 123.703 28.2012C126.452 34.7737 124.843 41.782 119.377 47.2479C109.451 57.1401 99.5593 67.0324 89.7007 76.9581C88.2252 78.4 86.8834 79.9761 85.8103 81.1497C81.5516 76.9581 77.5949 73.0348 73.3697 68.8767C79.0032 63.3102 84.637 57.6767 90.3376 52.0096L90.4383 51.909C96.1389 46.2084 101.906 40.5078 107.707 34.7401H107.607L107.808 34.5389H89.0629C88.5934 34.5389 88.1242 34.5389 87.6548 34.5389C86.9506 34.5389 86.2795 34.5389 85.5753 34.5389C85.2735 34.5389 85.0388 34.5389 84.7706 34.5725H83.4632L82.4234 35.612C82.2558 35.7461 82.0884 35.9138 81.9208 36.0814C78.1316 39.9042 74.3418 43.727 70.5191 47.5162C60.5598 57.509 50.6008 67.4348 40.6415 77.3941C39.3002 78.7354 37.9926 80.1438 36.6177 81.5522C36.2153 81.1833 36.0142 80.9821 35.813 80.7809C29.7435 74.0407 30.146 64.0479 36.752 57.4084C38.9316 55.1952 41.1447 52.9821 43.3579 50.7689L59.5537 34.5725H34.9075L30.7495 38.7641L25.1161 44.3976C24.8144 44.6994 24.5125 45.0012 24.2107 45.303C11.6358 57.9449 10.4615 77.5952 21.8292 91.3102C26.0208 96.3402 30.9504 100.699 35.5109 105.394C35.8127 105.696 36.1819 105.964 36.7184 106.4C44.8669 98.2515 52.9485 90.1701 61.1641 81.921C69.1449 90.0025 77.1926 98.0839 85.2405 106.199C85.5423 105.964 85.7769 105.796 85.9781 105.595C101.705 89.8683 117.533 74.242 133.092 58.3809C140.738 50.6012 143.756 40.8767 142.247 30.1126L142.179 30.012Z"
        fill="url(#paint10_linear_92_2233)" />
    <path d="M169.844 25.1497H189.193L176.081 100.029H156.733L169.844 25.1497Z"
        fill="url(#paint11_linear_92_2233)" />
    <path
        d="M205.188 25.1497H227.42L244.119 72.1629L252.335 25.1497H270.644L257.532 100.029H235.3L218.601 53.0155L210.386 100.029H192.076L205.188 25.1497Z"
        fill="url(#paint12_linear_92_2233)" />
    <path
        d="M286.673 25.1497H315.109C338.213 25.1497 351.425 40.4071 347.569 62.606C343.679 84.8048 325.135 100.062 302.031 100.062H273.595L286.707 25.1832L286.673 25.1497ZM304.747 84.5365C316.182 84.5365 325.604 75.5832 327.884 62.606C330.165 49.6287 323.861 40.6754 312.426 40.6754H303.339L295.66 84.5365H304.747Z"
        fill="url(#paint13_linear_92_2233)" />
    <path
        d="M357.192 62.606C361.25 39.4348 379.861 23.5066 402.965 23.5066C426.069 23.5066 439.114 39.4348 435.056 62.606C430.999 85.7773 412.388 101.705 389.283 101.705C366.179 101.705 353.135 85.7773 357.192 62.606ZM392.1 85.7102C403.535 85.7102 412.991 76.2875 415.372 62.606C417.753 48.9246 411.616 39.5018 400.182 39.5018C388.747 39.5018 379.291 48.9246 376.91 62.606C374.496 76.321 380.666 85.7102 392.1 85.7102Z"
        fill="url(#paint14_linear_92_2233)" />
    <path
        d="M447.765 25.1497H467.885L469.796 75.1808L488.775 25.1497H507.487L508.962 75.1808L528.378 25.1497H548.431L514.965 100.029H496.187L494.007 48.5556L473.82 100.029H455.042L447.698 25.1497H447.765Z"
        fill="url(#paint15_linear_92_2233)" />
    <path
        d="M560.1 25.1497H611.372L608.656 40.6754H576.733L574.185 55.2622H600.106L597.624 69.4802H571.703L569.054 84.5365H600.977L598.261 100.062H546.989L560.1 25.1832V25.1497Z"
        fill="url(#paint16_linear_92_2233)" />
    <path
        d="M624.752 25.1497H659.761C673.845 25.1497 682.16 32.5605 680.249 43.3581C678.807 51.5737 672.134 57.8443 662.778 60.3593C673.375 62.673 679.142 69.9832 677.432 79.7413C675.319 91.7461 663.282 100.029 647.823 100.029H611.607L624.718 25.1497H624.752ZM650.74 55.5641C655.703 55.5641 659.727 52.1437 660.599 47.1473C661.471 42.1509 658.855 38.7305 654.16 38.7305H641.753L638.803 55.5976H650.74V55.5641ZM646.985 86.4815C652.685 86.4815 657.279 82.5916 658.285 76.8575C659.291 71.1569 655.837 67.2335 649.935 67.2335H636.757L633.404 86.4815H647.018H646.985Z"
        fill="url(#paint17_linear_92_2233)" />
    <path
        d="M699.396 25.1497H727.832C750.936 25.1497 764.149 40.4071 760.293 62.606C756.403 84.8048 737.859 100.062 714.755 100.062H686.319L699.43 25.1832L699.396 25.1497ZM717.471 84.5365C728.906 84.5365 738.328 75.5832 740.608 62.606C742.889 49.6287 736.585 40.6754 725.15 40.6754H716.062L708.384 84.5365H717.471Z"
        fill="url(#paint18_linear_92_2233)" />
    <path
        d="M779.608 25.1497H830.879L828.163 40.6754H796.24L793.691 55.2622H819.612L817.131 69.4802H791.21L788.561 84.5365H820.484L817.768 100.062H766.496L779.608 25.1832V25.1497Z"
        fill="url(#paint19_linear_92_2233)" />
    <path
        d="M839.765 25.1497H860.724L865.888 81.4179L890.769 25.1497H911.66L875.176 100.029H850.027L839.765 25.1497Z"
        fill="url(#paint20_linear_92_2233)" />
    <path
        d="M142.179 30.012C139.765 12.709 124.876 0 107.405 0C80.7131 0 54.0213 0 27.329 0C23.2715 0 19.6502 1.27426 16.6993 4.09102C13.0107 7.64552 9.42266 11.3341 5.76757 14.9222C3.82266 16.8671 1.84431 18.7449 0 20.4886C4.29222 24.8144 8.34964 28.9054 12.5077 33.1306C16.7664 28.8384 21.0581 24.5461 25.3503 20.2204C27.1275 18.4096 29.1735 17.5713 31.6885 17.5713C56.8047 17.5713 81.9207 17.5713 107.037 17.5713C114.515 17.5713 121.02 21.7629 123.703 28.2012C126.452 34.7737 124.843 41.782 119.377 47.2479C109.451 57.1401 99.5593 67.0324 89.7007 76.9581C88.2252 78.4 86.8834 79.9761 85.8103 81.1497C81.5516 76.9581 77.5949 73.0348 73.3697 68.8767C79.0032 63.3102 84.637 57.6767 90.3376 52.0096L90.4383 51.909C96.1389 46.2084 101.906 40.5078 107.707 34.7401H107.607L107.808 34.5389H89.0629C88.5934 34.5389 88.1242 34.5389 87.6548 34.5389C86.9506 34.5389 86.2795 34.5389 85.5753 34.5389C85.2735 34.5389 85.0388 34.5389 84.7706 34.5725H83.4632L82.4234 35.612C82.2558 35.7461 82.0884 35.9138 81.9208 36.0814C78.1316 39.9042 74.3418 43.727 70.5191 47.5162C60.5598 57.509 50.6008 67.4348 40.6415 77.3941C39.3002 78.7354 37.9926 80.1438 36.6177 81.5522C36.2153 81.1833 36.0142 80.9821 35.813 80.7809C29.7435 74.0407 30.146 64.0479 36.752 57.4084C38.9316 55.1952 41.1447 52.9821 43.3579 50.7689L59.5537 34.5725H34.9075L30.7495 38.7641L25.1161 44.3976C24.8144 44.6994 24.5125 45.0012 24.2107 45.303C11.6358 57.9449 10.4615 77.5952 21.8292 91.3102C26.0208 96.3402 30.9504 100.699 35.5109 105.394C35.8127 105.696 36.1819 105.964 36.7184 106.4C44.8669 98.2515 52.9485 90.1701 61.1641 81.921C69.1449 90.0025 77.1926 98.0839 85.2405 106.199C85.5423 105.964 85.7769 105.796 85.9781 105.595C101.705 89.8683 117.533 74.242 133.092 58.3809C140.738 50.6012 143.756 40.8767 142.247 30.1126L142.179 30.012Z"
        fill="url(#paint21_linear_92_2233)" />
    <defs>
        <linearGradient id="paint0_linear_92_2233" x1="156.733" y1="62.606" x2="189.193" y2="62.606"
            gradientUnits="userSpaceOnUse">
            <stop stop-color="#FCB74C" />
            <stop offset="0.35" stop-color="#EC67A6" />
            <stop offset="0.7" stop-color="#915FA7" />
            <stop offset="1" stop-color="#4BC4D6" />
        </linearGradient>
        <linearGradient id="paint1_linear_92_2233" x1="192.076" y1="62.606" x2="270.644" y2="62.606"
            gradientUnits="userSpaceOnUse">
            <stop stop-color="#FCB74C" />
            <stop offset="0.35" stop-color="#EC67A6" />
            <stop offset="0.7" stop-color="#915FA7" />
            <stop offset="1" stop-color="#4BC4D6" />
        </linearGradient>
        <linearGradient id="paint2_linear_92_2233" x1="273.595" y1="62.606" x2="348.239" y2="62.606"
            gradientUnits="userSpaceOnUse">
            <stop stop-color="#FCB74C" />
            <stop offset="0.35" stop-color="#EC67A6" />
            <stop offset="0.7" stop-color="#915FA7" />
            <stop offset="1" stop-color="#4BC4D6" />
        </linearGradient>
        <linearGradient id="paint3_linear_92_2233" x1="356.454" y1="62.606" x2="435.828" y2="62.606"
            gradientUnits="userSpaceOnUse">
            <stop stop-color="#FCB74C" />
            <stop offset="0.35" stop-color="#EC67A6" />
            <stop offset="0.7" stop-color="#915FA7" />
            <stop offset="1" stop-color="#4BC4D6" />
        </linearGradient>
        <linearGradient id="paint4_linear_92_2233" x1="447.765" y1="62.606" x2="548.464" y2="62.606"
            gradientUnits="userSpaceOnUse">
            <stop stop-color="#FCB74C" />
            <stop offset="0.35" stop-color="#EC67A6" />
            <stop offset="0.7" stop-color="#915FA7" />
            <stop offset="1" stop-color="#4BC4D6" />
        </linearGradient>
        <linearGradient id="paint5_linear_92_2233" x1="546.989" y1="62.606" x2="611.339" y2="62.606"
            gradientUnits="userSpaceOnUse">
            <stop stop-color="#FCB74C" />
            <stop offset="0.35" stop-color="#EC67A6" />
            <stop offset="0.7" stop-color="#915FA7" />
            <stop offset="1" stop-color="#4BC4D6" />
        </linearGradient>
        <linearGradient id="paint6_linear_92_2233" x1="611.641" y1="62.606" x2="680.517" y2="62.606"
            gradientUnits="userSpaceOnUse">
            <stop stop-color="#FCB74C" />
            <stop offset="0.35" stop-color="#EC67A6" />
            <stop offset="0.7" stop-color="#915FA7" />
            <stop offset="1" stop-color="#4BC4D6" />
        </linearGradient>
        <linearGradient id="paint7_linear_92_2233" x1="686.285" y1="62.606" x2="760.963" y2="62.606"
            gradientUnits="userSpaceOnUse">
            <stop stop-color="#FCB74C" />
            <stop offset="0.35" stop-color="#EC67A6" />
            <stop offset="0.7" stop-color="#915FA7" />
            <stop offset="1" stop-color="#4BC4D6" />
        </linearGradient>
        <linearGradient id="paint8_linear_92_2233" x1="766.496" y1="62.606" x2="830.845" y2="62.606"
            gradientUnits="userSpaceOnUse">
            <stop stop-color="#FCB74C" />
            <stop offset="0.35" stop-color="#EC67A6" />
            <stop offset="0.7" stop-color="#915FA7" />
            <stop offset="1" stop-color="#4BC4D6" />
        </linearGradient>
        <linearGradient id="paint9_linear_92_2233" x1="839.765" y1="62.606" x2="911.66" y2="62.606"
            gradientUnits="userSpaceOnUse">
            <stop stop-color="#FCB74C" />
            <stop offset="0.35" stop-color="#EC67A6" />
            <stop offset="0.7" stop-color="#915FA7" />
            <stop offset="1" stop-color="#4BC4D6" />
        </linearGradient>
        <linearGradient id="paint10_linear_92_2233" x1="-0.0335329" y1="53.1497" x2="142.548"
            y2="53.1497" gradientUnits="userSpaceOnUse">
            <stop stop-color="#FCB74C" />
            <stop offset="0.35" stop-color="#EC67A6" />
            <stop offset="0.7" stop-color="#915FA7" />
            <stop offset="1" stop-color="#4BC4D6" />
        </linearGradient>
        <linearGradient id="paint11_linear_92_2233" x1="-0.0324013" y1="53.1497" x2="911.655"
            y2="53.1497" gradientUnits="userSpaceOnUse">
            <stop stop-color="#FCB74C" />
            <stop offset="0.35" stop-color="#EC67A6" />
            <stop offset="0.7" stop-color="#915FA7" />
            <stop offset="1" stop-color="#4BC4D6" />
        </linearGradient>
        <linearGradient id="paint12_linear_92_2233" x1="-0.0356502" y1="53.1497" x2="911.665"
            y2="53.1497" gradientUnits="userSpaceOnUse">
            <stop stop-color="#FCB74C" />
            <stop offset="0.35" stop-color="#EC67A6" />
            <stop offset="0.7" stop-color="#915FA7" />
            <stop offset="1" stop-color="#4BC4D6" />
        </linearGradient>
        <linearGradient id="paint13_linear_92_2233" x1="-0.0348076" y1="53.1497" x2="911.662"
            y2="53.1497" gradientUnits="userSpaceOnUse">
            <stop stop-color="#FCB74C" />
            <stop offset="0.35" stop-color="#EC67A6" />
            <stop offset="0.7" stop-color="#915FA7" />
            <stop offset="1" stop-color="#4BC4D6" />
        </linearGradient>
        <linearGradient id="paint14_linear_92_2233" x1="-0.0376101" y1="53.1497" x2="911.664"
            y2="53.1497" gradientUnits="userSpaceOnUse">
            <stop stop-color="#FCB74C" />
            <stop offset="0.35" stop-color="#EC67A6" />
            <stop offset="0.7" stop-color="#915FA7" />
            <stop offset="1" stop-color="#4BC4D6" />
        </linearGradient>
        <linearGradient id="paint15_linear_92_2233" x1="-0.0349098" y1="53.1497" x2="911.66"
            y2="53.1497" gradientUnits="userSpaceOnUse">
            <stop stop-color="#FCB74C" />
            <stop offset="0.35" stop-color="#EC67A6" />
            <stop offset="0.7" stop-color="#915FA7" />
            <stop offset="1" stop-color="#4BC4D6" />
        </linearGradient>
        <linearGradient id="paint16_linear_92_2233" x1="-0.0325765" y1="53.1497" x2="911.659"
            y2="53.1497" gradientUnits="userSpaceOnUse">
            <stop stop-color="#FCB74C" />
            <stop offset="0.35" stop-color="#EC67A6" />
            <stop offset="0.7" stop-color="#915FA7" />
            <stop offset="1" stop-color="#4BC4D6" />
        </linearGradient>
        <linearGradient id="paint17_linear_92_2233" x1="-0.0330623" y1="53.1497" x2="911.66"
            y2="53.1497" gradientUnits="userSpaceOnUse">
            <stop stop-color="#FCB74C" />
            <stop offset="0.35" stop-color="#EC67A6" />
            <stop offset="0.7" stop-color="#915FA7" />
            <stop offset="1" stop-color="#4BC4D6" />
        </linearGradient>
        <linearGradient id="paint18_linear_92_2233" x1="-0.0353989" y1="53.1497" x2="911.661"
            y2="53.1497" gradientUnits="userSpaceOnUse">
            <stop stop-color="#FCB74C" />
            <stop offset="0.35" stop-color="#EC67A6" />
            <stop offset="0.7" stop-color="#915FA7" />
            <stop offset="1" stop-color="#4BC4D6" />
        </linearGradient>
        <linearGradient id="paint19_linear_92_2233" x1="-0.032156" y1="53.1497" x2="911.659"
            y2="53.1497" gradientUnits="userSpaceOnUse">
            <stop stop-color="#FCB74C" />
            <stop offset="0.35" stop-color="#EC67A6" />
            <stop offset="0.7" stop-color="#915FA7" />
            <stop offset="1" stop-color="#4BC4D6" />
        </linearGradient>
        <linearGradient id="paint20_linear_92_2233" x1="-0.031417" y1="53.1497" x2="911.66"
            y2="53.1497" gradientUnits="userSpaceOnUse">
            <stop stop-color="#FCB74C" />
            <stop offset="0.35" stop-color="#EC67A6" />
            <stop offset="0.7" stop-color="#915FA7" />
            <stop offset="1" stop-color="#4BC4D6" />
        </linearGradient>
        <linearGradient id="paint21_linear_92_2233" x1="-0.0335329" y1="53.1497" x2="911.659"
            y2="53.1497" gradientUnits="userSpaceOnUse">
            <stop stop-color="#FCB74C" />
            <stop offset="0.35" stop-color="#EC67A6" />
            <stop offset="0.7" stop-color="#915FA7" />
            <stop offset="1" stop-color="#4BC4D6" />
        </linearGradient>
    </defs>
</svg>    