<svg width="625" height="701" viewBox="0 0 625 701" fill="none" xmlns="http://www.w3.org/2000/svg">
<g clip-path="url(#clip0_1010_767)">
<path d="M254.39 121.526C253.922 120.7 253.233 119.922 252.519 119.29C250.993 117.929 249.073 117.127 247.006 117.272C244.889 117.418 242.575 118.464 241.566 120.384C240.729 121.964 240.877 123.811 241.714 125.343C242.649 127.044 244.397 128.211 246.292 128.576C247.301 128.77 248.384 128.843 249.418 128.843C250.23 128.843 251.067 128.795 251.854 128.576C253.405 128.114 254.464 127.044 255.35 125.756C255.94 124.905 256.457 124.006 256.95 123.107C257.688 121.818 258.402 120.53 259.116 119.217C260.346 117.005 261.528 114.793 262.635 112.508C263.078 111.609 263.546 110.709 263.915 109.761C263.94 109.737 263.94 109.688 263.964 109.664C263.62 109.785 263.251 109.907 262.906 110.029C264.58 110.417 266.229 110.782 267.903 111.171C270.561 111.779 273.219 112.362 275.853 112.97C276.468 113.116 277.059 113.237 277.674 113.383C277.6 113.237 277.502 113.067 277.428 112.921C276.64 114.331 275.853 115.765 275.065 117.175C273.81 119.436 272.555 121.697 271.275 123.957C270.979 124.468 270.684 125.003 270.413 125.513C270.856 125.464 271.324 125.416 271.767 125.367C271.57 124.93 271.25 124.541 270.93 124.2C270.044 123.301 268.912 122.669 267.706 122.256C266.475 121.794 265.146 121.624 263.866 121.94C262.684 122.231 261.675 122.912 260.937 123.86C260.149 124.881 259.731 126.169 259.583 127.433C259.485 128.357 259.78 129.257 260.297 130.01C261.528 131.76 263.767 132.733 265.86 132.951C268.026 133.195 270.241 132.49 271.595 130.739C272.53 129.548 273.318 128.236 274.105 126.947C276.247 123.374 278.24 119.703 280.185 116.033C281.44 113.675 282.695 111.293 283.901 108.91C283.926 108.862 283.951 108.837 283.951 108.789C284.049 108.57 283.926 108.376 283.705 108.327C281.415 107.841 279.151 107.355 276.862 106.868C273.219 106.091 269.601 105.313 265.958 104.535C265.121 104.365 264.284 104.17 263.448 104C263.103 103.927 262.561 104.024 262.389 104.365C261.331 106.334 260.272 108.278 259.239 110.247C257.565 113.359 255.891 116.47 254.242 119.557C253.848 120.287 253.479 120.992 253.085 121.721C252.937 122.013 253.233 122.183 253.479 122.207C253.774 122.231 254.242 122.11 254.39 121.818C255.448 119.849 256.506 117.905 257.54 115.936C259.214 112.848 260.888 109.737 262.561 106.65C262.955 105.92 263.324 105.215 263.718 104.486C263.374 104.608 263.004 104.729 262.66 104.851C264.949 105.337 267.213 105.823 269.502 106.309C273.145 107.087 276.763 107.865 280.406 108.643C281.243 108.813 282.08 109.008 282.917 109.178C282.843 109.032 282.745 108.862 282.671 108.716C281.735 110.563 280.775 112.386 279.816 114.234C277.945 117.783 276.05 121.308 274.056 124.784C273.219 126.267 272.333 127.725 271.398 129.135C271.225 129.402 271.053 129.67 270.856 129.937C270.782 130.059 270.684 130.156 270.61 130.278C270.585 130.326 270.536 130.375 270.512 130.423C270.487 130.448 270.462 130.472 270.438 130.496C270.389 130.569 270.512 130.399 270.413 130.521C270.315 130.642 270.241 130.739 270.142 130.837C270.069 130.934 269.97 131.007 269.872 131.104C269.773 131.201 269.675 131.274 269.65 131.298C269.552 131.371 269.429 131.444 269.33 131.517C269.281 131.542 269.256 131.566 269.207 131.59C269.035 131.687 269.33 131.542 269.133 131.639C269.035 131.687 268.936 131.736 268.838 131.785C268.789 131.809 268.715 131.833 268.666 131.858C268.592 131.882 268.592 131.882 268.666 131.858C268.616 131.882 268.592 131.882 268.543 131.906C268.444 131.93 268.321 131.979 268.223 132.003C268.149 132.028 268.099 132.028 268.026 132.052C267.829 132.101 268.124 132.028 267.976 132.052C267.73 132.101 267.46 132.125 267.213 132.125C266.992 132.125 267.336 132.125 267.115 132.125C267.041 132.125 266.992 132.125 266.918 132.125C266.795 132.125 266.697 132.125 266.573 132.101C266.327 132.076 266.057 132.052 265.86 132.003C264.875 131.809 263.964 131.444 263.128 130.885C262.414 130.399 261.725 129.767 261.331 128.989C260.863 128.09 260.937 127.19 261.183 126.218C261.454 125.148 261.946 124.127 262.783 123.398C262.832 123.35 262.881 123.325 262.98 123.252C263.078 123.179 263.201 123.107 263.324 123.034C263.349 123.034 263.448 122.985 263.349 123.034C263.398 123.009 263.472 122.985 263.521 122.936C263.571 122.912 263.644 122.888 263.694 122.863C263.718 122.863 263.915 122.791 263.767 122.839C263.891 122.791 264.014 122.766 264.161 122.742C264.211 122.742 264.26 122.718 264.284 122.718C264.137 122.742 264.358 122.718 264.358 122.718C264.678 122.669 264.826 122.669 265.097 122.693C266.327 122.766 267.583 123.301 268.592 123.982C269.232 124.395 269.822 124.93 270.241 125.586C270.29 125.659 270.389 125.853 270.315 125.708C270.315 125.732 270.339 125.756 270.339 125.78C270.561 126.267 271.472 126.024 271.693 125.635C272.481 124.225 273.268 122.791 274.056 121.381C275.311 119.12 276.567 116.859 277.846 114.599C278.142 114.088 278.437 113.553 278.708 113.043C278.831 112.824 278.683 112.63 278.462 112.581C276.788 112.192 275.139 111.827 273.465 111.438C270.807 110.831 268.149 110.247 265.515 109.64C264.9 109.494 264.309 109.372 263.694 109.226C263.374 109.153 262.758 109.251 262.635 109.591C261.7 111.925 260.469 114.185 259.288 116.397C257.983 118.877 256.63 121.332 255.227 123.763C254.759 124.565 254.291 125.343 253.75 126.096C253.651 126.218 253.627 126.267 253.479 126.437C253.381 126.558 253.257 126.704 253.134 126.826C253.036 126.947 252.913 127.044 252.79 127.142C252.765 127.166 252.741 127.19 252.716 127.215C252.741 127.19 252.839 127.117 252.716 127.215C252.642 127.263 252.593 127.312 252.519 127.36C252.47 127.409 252.396 127.433 252.347 127.482C252.273 127.531 252.125 127.604 252.273 127.531C252.125 127.604 252.002 127.677 251.854 127.725C251.781 127.749 251.608 127.798 251.805 127.749C251.731 127.774 251.658 127.798 251.608 127.822C251.535 127.847 251.461 127.871 251.387 127.871C251.338 127.895 251.042 127.944 251.264 127.895C250.919 127.944 250.575 127.993 250.205 127.993C250.156 127.993 250.107 127.993 250.058 127.993C249.935 127.993 250.23 127.993 250.033 127.993C249.935 127.993 249.836 127.993 249.738 127.993C249.516 127.993 249.27 127.968 249.049 127.968C248.039 127.92 247.079 127.847 246.144 127.531C245.356 127.263 244.593 126.777 244.003 126.194C242.871 125.051 242.206 123.447 242.452 121.842C242.501 121.478 242.6 121.089 242.747 120.773C242.895 120.408 243.141 120.044 243.338 119.801C243.634 119.46 243.855 119.266 244.224 119.023C244.569 118.804 244.963 118.609 245.406 118.464C246.366 118.148 247.276 118.075 248.236 118.269C249.098 118.464 249.861 118.828 250.599 119.339C251.535 120.019 252.396 120.919 253.036 121.94C253.061 121.988 253.11 122.061 253.134 122.11C253.282 122.377 253.848 122.256 254.07 122.158C254.291 122.037 254.537 121.794 254.39 121.526Z" fill="#7BAEF4"/>
</g>
<g filter="url(#filter0_f_1010_767)">
<circle cx="144.5" cy="423.5" r="99.6211" transform="rotate(-177.39 144.5 423.5)" stroke="url(#paint0_angular_1010_767)" stroke-width="20"/>
</g>
<g filter="url(#filter1_i_1010_767)">
<circle cx="144.5" cy="423.5" r="87.1211" transform="rotate(-177.39 144.5 423.5)" stroke="url(#paint1_angular_1010_767)" stroke-width="45"/>
</g>
<g filter="url(#filter2_f_1010_767)">
<mask id="mask0_1010_767" style="mask-type:alpha" maskUnits="userSpaceOnUse" x="258" y="297" width="231" height="231">
<rect x="258.443" y="297.915" width="229.882" height="229.882" rx="23.6449" fill="white"/>
</mask>
<g mask="url(#mask0_1010_767)">
<rect x="258.443" y="297.915" width="229.882" height="229.882" rx="23.6449" fill="white"/>
<g filter="url(#filter3_f_1010_767)">
<ellipse cx="316.563" cy="559.524" rx="81.4978" ry="155.947" fill="#FFEC41"/>
</g>
<g filter="url(#filter4_f_1010_767)">
<ellipse cx="466.246" cy="387.637" rx="68.8348" ry="131.716" fill="#FFCEF1"/>
</g>
<g filter="url(#filter5_f_1010_767)">
<ellipse cx="426.309" cy="528.367" rx="81.4978" ry="155.947" fill="#DE08A2"/>
</g>
<g filter="url(#filter6_f_1010_767)">
<ellipse cx="327.603" cy="247.202" rx="109.421" ry="209.379" fill="#FF73AE"/>
</g>
</g>
</g>
<g filter="url(#filter7_i_1010_767)">
<g filter="url(#filter8_f_1010_767)">
<mask id="mask1_1010_767" style="mask-type:alpha" maskUnits="userSpaceOnUse" x="249" y="256" width="320" height="325">
<rect x="249" y="256" width="320" height="324.069" rx="38.2172" fill="white"/>
</mask>
<g mask="url(#mask1_1010_767)">
<rect x="249" y="256" width="320" height="324.069" rx="38.2172" fill="white"/>
<g filter="url(#filter9_f_1010_767)">
<ellipse cx="329.904" cy="624.795" rx="113.446" ry="219.841" fill="#FFEC41"/>
</g>
<g filter="url(#filter10_f_1010_767)">
<ellipse cx="538.266" cy="382.483" rx="95.8192" ry="185.683" fill="#FFCEF1"/>
</g>
<g filter="url(#filter11_f_1010_767)">
<ellipse cx="482.673" cy="580.873" rx="113.446" ry="219.841" fill="#DE08A2"/>
</g>
<g filter="url(#filter12_f_1010_767)">
<ellipse cx="345.271" cy="184.51" rx="152.316" ry="295.165" fill="#FF73AE"/>
</g>
</g>
</g>
<mask id="mask2_1010_767" style="mask-type:alpha" maskUnits="userSpaceOnUse" x="244" y="255" width="325" height="326">
<rect x="244" y="255.797" width="325" height="325" rx="38.2172" fill="white"/>
</mask>
<g mask="url(#mask2_1010_767)">
<rect x="244" y="255.797" width="325" height="325" rx="38.2172" fill="white"/>
<g filter="url(#filter13_f_1010_767)">
<ellipse cx="326.168" cy="625.651" rx="115.219" ry="220.473" fill="#FFEC41"/>
</g>
<g filter="url(#filter14_f_1010_767)">
<ellipse cx="537.786" cy="382.643" rx="97.3164" ry="186.216" fill="#FFCEF1"/>
</g>
<g filter="url(#filter15_f_1010_767)">
<ellipse cx="481.323" cy="581.603" rx="115.219" ry="220.473" fill="#DE08A2"/>
</g>
<g filter="url(#filter16_f_1010_767)">
<ellipse cx="341.775" cy="184.101" rx="154.696" ry="296.014" fill="#FF73AE"/>
</g>
</g>
</g>
<g filter="url(#filter17_i_1010_767)">
<rect x="417.25" y="486.25" width="93.5" height="9.5" rx="4.75" fill="url(#paint2_linear_1010_767)" stroke="url(#paint3_linear_1010_767)" stroke-width="0.5"/>
<rect x="449.25" y="521.724" width="61.2744" height="9.00376" rx="4.50188" fill="url(#paint4_linear_1010_767)" stroke="url(#paint5_linear_1010_767)" stroke-width="0.5"/>
<rect x="293.25" y="458.716" width="217.86" height="9.00376" rx="4.50188" fill="url(#paint6_linear_1010_767)" stroke="url(#paint7_linear_1010_767)" stroke-width="0.5"/>
<rect x="293.25" y="433.769" width="217.86" height="9.00376" rx="4.50188" fill="url(#paint8_linear_1010_767)" stroke="url(#paint9_linear_1010_767)" stroke-width="0.5"/>
<rect x="293.25" y="408.821" width="217.86" height="9.00376" rx="4.50188" fill="url(#paint10_linear_1010_767)" stroke="url(#paint11_linear_1010_767)" stroke-width="0.5"/>
<rect x="293.25" y="383.874" width="217.86" height="9.00376" rx="4.50188" fill="url(#paint12_linear_1010_767)" stroke="url(#paint13_linear_1010_767)" stroke-width="0.5"/>
<rect x="293.25" y="358.927" width="217.86" height="9.00376" rx="4.50188" fill="url(#paint14_linear_1010_767)" stroke="url(#paint15_linear_1010_767)" stroke-width="0.5"/>
<rect x="405.25" y="336.979" width="105.282" height="9.00376" rx="4.50188" fill="url(#paint16_linear_1010_767)" stroke="url(#paint17_linear_1010_767)" stroke-width="0.5"/>
<rect x="438.25" y="297.25" width="72.5" height="9.5" rx="4.75" fill="url(#paint18_linear_1010_767)" stroke="url(#paint19_linear_1010_767)" stroke-width="0.5"/>
</g>
<g filter="url(#filter18_f_1010_767)">
<circle cx="101" cy="99.0002" r="54.1451" transform="rotate(-29.5666 101 99.0002)" stroke="url(#paint20_angular_1010_767)" stroke-width="20"/>
</g>
<g filter="url(#filter19_i_1010_767)">
<circle cx="101" cy="99.0002" r="51.6451" transform="rotate(-29.5666 101 99.0002)" stroke="url(#paint21_angular_1010_767)" stroke-width="25"/>
</g>
<g filter="url(#filter20_i_1010_767)">
<g filter="url(#filter21_f_1010_767)">
<mask id="mask3_1010_767" style="mask-type:alpha" maskUnits="userSpaceOnUse" x="110" y="109" width="188" height="188">
<rect x="110.396" y="109.791" width="187.209" height="187.209" rx="27.4081" fill="#C4C4C4"/>
</mask>
<g mask="url(#mask3_1010_767)">
<g filter="url(#filter22_f_1010_767)">
<ellipse cx="285.177" cy="110.297" rx="66.3693" ry="126.999" fill="#89E3FF"/>
</g>
<g filter="url(#filter23_f_1010_767)">
<ellipse cx="287.557" cy="270.69" rx="56.0569" ry="107.266" fill="#44FFDD"/>
</g>
<g filter="url(#filter24_f_1010_767)">
<ellipse cx="149.265" cy="250.957" rx="66.3693" ry="126.999" fill="#A431FF"/>
</g>
<g filter="url(#filter25_f_1010_767)">
<ellipse cx="166.717" cy="79.9387" rx="89.1094" ry="170.512" fill="#31DAFF"/>
</g>
</g>
</g>
<mask id="mask4_1010_767" style="mask-type:alpha" maskUnits="userSpaceOnUse" x="95" y="79" width="218" height="218">
<rect x="95" y="79" width="218" height="218" rx="27.4081" fill="white"/>
</mask>
<g mask="url(#mask4_1010_767)">
<rect x="95" y="79" width="218" height="218" rx="27.4081" fill="#61ECFF"/>
<g filter="url(#filter26_f_1010_767)">
<ellipse cx="298.528" cy="79.5891" rx="77.2853" ry="147.886" fill="#5BB0FF"/>
</g>
<g filter="url(#filter27_f_1010_767)">
<ellipse cx="290.831" cy="297.686" rx="65.2768" ry="124.908" fill="#6AD5ED"/>
</g>
<g filter="url(#filter28_f_1010_767)">
<ellipse cx="140.262" cy="243.384" rx="77.2853" ry="147.886" fill="#316BFF"/>
</g>
<g filter="url(#filter29_f_1010_767)">
<ellipse cx="160.585" cy="44.2378" rx="103.766" ry="198.557" fill="#31DAFF"/>
</g>
</g>
</g>
<g filter="url(#filter30_b_1010_767)">
<rect y="377" width="356" height="74" rx="18" fill="white" fill-opacity="0.12"/>
<rect x="0.5" y="377.5" width="355" height="73" rx="17.5" stroke="url(#paint22_linear_1010_767)"/>
</g>
<g opacity="0.93">
<g opacity="0.93">
<path opacity="0.93" d="M18.2616 417.03C19.3288 416.933 20.493 416.982 21.3662 417.613C22.4819 418.488 23.258 419.702 24.4707 420.479C26.6537 421.937 29.4187 422.034 31.359 420.139C33.0083 418.488 33.9785 416.253 35.3368 414.31C36.2099 413.047 37.4227 411.006 38.8779 412.561C40.3817 414.213 41.0609 416.69 41.7885 418.73C42.5646 420.868 43.2438 423.346 44.7476 425.094C45.9603 426.503 47.8036 427.038 49.55 426.212C51.1508 425.434 52.0239 423.734 52.6545 422.18C54.4494 417.856 55.08 413.047 56.9719 408.772C57.2629 408.092 57.942 407.411 58.1846 406.731C58.3301 406.391 58.3786 406.829 58.0391 406.683C57.8935 406.634 57.8935 406.537 58.1361 406.829C58.9607 407.8 59.3973 409.452 59.6884 410.763C60.8041 415.233 61.2892 419.896 62.5019 424.366C63.3266 427.426 64.7818 431.993 68.7111 431.847C72.4948 431.653 73.4165 427.62 73.853 424.56C74.4837 419.896 74.3381 415.184 74.7747 410.472C74.9687 408.383 75.2113 406.197 75.9874 404.254C76.2785 403.574 76.5695 402.845 77.1031 402.311C77.5397 401.873 77.8308 401.728 78.2189 401.679C78.4614 401.679 78.801 401.728 79.189 402.068C79.6741 402.456 79.9652 403.088 80.2077 403.622C80.9839 405.323 81.2749 407.266 81.5175 409.063C82.1966 413.678 82.2451 418.39 82.8757 423.005C83.2638 425.823 83.7489 430.438 86.8535 431.604C89.9581 432.77 91.9954 430.001 92.7716 427.426C94.0813 423.346 94.3239 418.925 94.712 414.65C95.1 410.132 95.3426 405.565 96.2157 401.145C96.5068 399.687 96.7493 398.084 97.5255 396.821C97.6225 396.675 97.768 396.53 97.9136 396.335C97.8651 396.384 97.9621 396.287 97.9621 396.287C97.4285 396.287 97.6225 396.287 97.8166 396.53C98.7867 397.647 99.1748 399.104 99.5629 400.562C100.096 402.602 100.388 404.74 100.727 406.829C101.358 411.346 101.794 415.913 102.861 420.334C103.492 422.957 104.656 426.892 108.1 426.503C112.03 426.115 113.097 421.305 113.728 418.148C114.649 413.63 114.843 408.966 115.959 404.497C116.153 403.719 116.396 402.894 116.784 402.214C116.929 401.971 117.075 401.776 117.172 401.582C117.414 401.193 117.269 401.679 117.026 401.533C116.784 401.388 117.22 401.582 117.22 401.582C117.463 401.825 117.705 401.971 117.948 402.214C118.53 402.894 118.87 403.817 119.161 404.691C120.664 409.063 120.81 413.873 122.75 418.099C123.478 419.653 124.497 421.159 126.291 421.499C128.571 421.937 130.803 420.819 132.113 418.973C133.422 417.127 133.956 414.747 135.411 412.998C136.672 411.444 137.982 412.269 138.807 413.775C140.747 417.37 140.359 422.908 143.706 425.629C145.258 426.892 147.49 426.94 149.139 425.872C150.691 424.851 151.419 423.054 151.953 421.305C153.262 417.03 153.262 412.172 155.348 408.189C155.639 407.654 156.027 407.12 156.464 406.829C156.513 406.829 156.804 406.829 156.513 406.78C156.755 406.829 156.852 406.926 157.095 407.12C158.162 408.14 158.55 410.035 158.89 411.395C160.005 416.01 160.296 420.771 161.412 425.386C162.043 428.106 163.401 432.673 167.136 431.798C170.144 431.07 170.92 427.038 171.502 424.511C172.521 420.042 173.006 415.427 173.588 410.909C174.121 406.78 174.461 402.505 175.625 398.521C175.819 397.939 176.013 397.356 176.256 396.773C176.353 396.53 176.498 396.384 176.498 396.335C176.595 396.044 176.595 396.335 176.256 396.384C176.062 396.433 175.431 396.384 175.48 396.335C175.528 396.287 175.722 396.53 175.722 396.578C176.013 397.016 176.159 397.356 176.353 397.841C177.614 401.291 177.954 405.128 178.39 408.723C179.021 413.581 179.506 418.488 180.234 423.345C180.767 426.94 181.252 430.875 182.805 434.227C183.969 436.753 186.443 438.016 188.917 436.025C191.682 433.79 192.021 428.884 192.506 425.629C193.137 421.014 193.428 416.35 194.253 411.735C194.544 410.229 194.835 408.529 195.659 407.169C195.659 407.169 195.999 406.634 195.902 406.829C195.951 406.634 195.708 407.023 195.611 406.877C195.902 407.509 195.077 406.294 195.562 406.877C195.611 406.926 195.853 406.974 195.902 407.023C196.242 407.266 196.484 407.509 196.727 407.8C197.939 409.403 198.376 411.638 198.861 413.581C199.395 415.864 199.783 418.196 200.462 420.479C201.481 424.123 203.712 427.912 208.078 425.969C212.395 424.026 212.298 418.245 213.414 414.358C213.947 412.512 214.287 411.492 216.13 412.658C218.168 413.97 219.041 416.593 220.205 418.585C221.272 420.382 222.776 421.84 225.007 421.548C226.996 421.305 228.209 419.702 229.082 418.05C230.198 415.864 230.926 413.484 231.896 411.249C232.478 409.889 233.545 407.071 235.243 406.731C237.668 406.294 238.202 414.067 238.396 415.573C238.881 419.945 238.833 425.143 240.967 429.126C242.471 431.944 246.012 432.624 248.001 429.904C250.135 427.038 250.523 422.714 251.105 419.265C251.833 414.747 252.367 410.181 253.434 405.76C253.773 404.4 254.21 402.894 254.938 401.825C255.18 401.485 255.132 401.631 255.132 401.582C255.18 401.679 254.695 401.631 254.695 401.679C254.744 401.631 255.083 401.922 255.423 402.359C256.344 403.622 256.684 405.371 257.023 406.877C257.509 409.112 257.848 411.395 258.188 413.678C258.818 418.148 259.158 422.763 260.516 427.086C261.341 429.758 263.281 432.818 266.531 431.264C269.296 429.952 269.878 425.872 270.315 423.248C271.916 414.164 271.479 404.788 273.177 395.704C273.468 394.247 273.759 392.741 274.535 391.429C274.487 391.526 274.778 391.186 274.826 391.089C274.826 391.089 274.875 391.186 274.632 391.186C274.778 391.186 274.196 391.137 274.147 391.137C274.244 391.137 274.293 391.235 274.244 391.186C275.797 392.983 276.088 396.141 276.427 398.473C277.882 407.654 278.173 416.982 279.095 426.212C279.483 429.952 279.823 433.79 280.793 437.433C281.278 439.377 282.151 442.146 284.674 441.951C287.73 441.708 288.651 438.114 289.185 435.636C290.204 431.264 290.543 426.697 290.931 422.228C291.368 417.565 291.708 412.852 292.484 408.237C292.775 406.586 293.066 404.885 293.648 403.282C293.793 402.845 294.133 402.116 294.327 401.873C294.521 401.631 294.618 401.485 294.618 401.533C294.618 401.533 294.521 401.485 294.327 401.631C294.133 401.728 294.279 401.582 294.327 401.679C294.521 401.825 294.618 401.873 294.764 402.068C295.2 402.602 295.491 403.185 295.685 403.817C296.364 405.663 296.704 407.606 297.044 409.5C297.771 414.115 298.111 418.73 298.935 423.345C299.372 425.92 299.954 430.632 302.913 431.653C306.745 433.013 309.025 428.641 309.85 425.726C311.16 421.257 311.402 416.544 312.227 411.978C312.518 410.326 312.809 408.48 313.682 407.071C314.022 406.488 313.634 407.071 313.537 406.926C313.634 407.023 313.925 407.12 314.022 407.217C314.361 407.509 314.652 407.946 314.846 408.335C316.981 412.172 317.029 417.079 318.339 421.257C319.212 424.026 321.347 427.961 324.936 426.357C329.302 424.414 329.884 418.293 331.048 414.407C331.291 413.63 331.631 412.367 332.552 412.221C333.474 412.124 334.735 412.95 335.511 413.387C337.597 414.553 339.538 416.059 341.914 416.544C343.37 416.884 344.922 414.796 342.982 414.358C338.858 413.435 334.444 407.46 330.03 411.055C327.459 413.144 327.604 417.37 326.489 420.236C326.052 421.305 325.567 422.422 324.888 423.394C324.694 423.637 324.403 423.977 324.209 424.171C324.112 424.269 323.53 424.754 323.821 424.463C323.481 424.803 323.578 424.317 323.821 424.511C324.112 424.754 323.821 424.414 323.821 424.414C323.53 423.977 322.85 423.686 322.511 423.151C321.347 421.354 320.91 418.973 320.473 416.933C319.94 414.65 319.552 412.318 318.873 410.035C318.388 408.383 317.757 406.488 316.35 405.42C315.089 404.448 313.246 404.448 311.936 405.371C310.675 406.343 310.141 407.994 309.753 409.452C308.54 413.921 308.395 418.585 307.473 423.103C307.085 424.949 306.697 427.038 305.581 428.641C305.339 428.981 304.757 429.515 304.757 429.515C304.562 429.612 304.611 429.515 304.708 429.564C304.611 429.515 304.465 429.466 304.223 429.272C303.301 428.398 302.865 426.649 302.574 425.434C302.04 423.297 301.7 421.159 301.409 418.973C300.779 414.455 300.488 409.889 299.421 405.42C298.79 402.796 297.577 398.716 294.036 399.444C291.174 400.076 290.398 403.525 289.864 405.954C288.894 410.278 288.554 414.747 288.166 419.168C287.73 423.928 287.39 428.689 286.566 433.401C286.275 435.005 285.983 436.705 285.353 438.211C285.159 438.648 284.868 439.28 284.674 439.522C284.334 440.008 284.383 439.765 285.013 439.668C285.207 439.62 285.11 439.814 284.916 439.522C284.625 439.134 284.48 438.842 284.286 438.405C283.752 437.045 283.412 435.587 283.17 434.179C282.394 430.098 282.054 425.92 281.666 421.742C280.89 412.852 280.696 403.719 278.853 394.975C278.465 393.129 277.931 389.874 275.845 389.146C272.837 388.028 271.188 391.477 270.558 393.761C269.442 397.793 269.199 402.068 268.86 406.197C268.472 411.104 268.181 416.01 267.55 420.868C267.307 422.811 267.016 424.803 266.434 426.697C266.24 427.329 266.046 427.961 265.755 428.543C265.561 428.932 265.076 429.418 265.027 429.515C265.027 429.564 265.173 429.369 265.27 429.418C265.222 429.369 265.367 429.564 265.076 429.369C264.882 429.224 264.445 428.689 264.203 428.252C263.378 426.746 262.99 424.949 262.651 423.297C261.68 418.585 261.244 413.775 260.468 409.063C259.983 406.294 259.546 401.582 256.926 399.93C253.919 398.036 251.639 401.436 250.863 403.914C249.553 407.946 249.068 412.269 248.437 416.496C247.855 420.334 247.467 424.657 245.769 428.252C245.527 428.738 245.139 429.224 244.945 429.515C244.751 429.758 245.042 429.466 244.993 429.515C245.187 429.321 245.236 429.661 244.993 429.418C243.683 428.252 243.198 426.989 242.762 425.289C241.598 420.674 241.646 415.816 240.821 411.152C240.191 407.703 238.784 403.477 234.418 404.74C229.955 406.051 228.646 411.881 227.093 415.621C226.705 416.544 226.317 417.516 225.784 418.39C225.59 418.682 225.347 419.168 225.056 419.362C224.716 419.605 225.153 419.411 224.959 419.411C223.213 419.168 222.097 415.767 221.369 414.504C220.108 412.269 218.362 410.278 215.694 409.938C213.705 409.695 211.959 410.715 211.037 412.464C210.067 414.31 209.824 416.544 209.388 418.585C209.048 420.285 208.611 423.103 206.962 424.074C204.1 425.726 202.79 417.322 202.451 415.864C201.723 412.609 201.238 406.731 197.697 405.08C194.253 403.477 192.312 406.877 191.536 409.646C190.372 413.97 190.178 418.585 189.644 423.005C189.402 425.24 189.111 427.523 188.626 429.758C188.286 431.264 187.947 432.964 187.025 434.276C186.831 434.567 186.685 434.567 186.54 434.762C186.588 434.664 186.491 434.762 186.685 434.713C186.734 434.713 186.734 434.859 186.637 434.664C186.685 434.762 186.491 434.519 186.394 434.47C185.57 433.499 185.133 432.236 184.745 431.021C183.532 426.94 182.999 422.665 182.465 418.488C181.834 413.727 181.349 408.917 180.622 404.157C180.185 401.388 179.991 397.598 178.245 395.315C176.498 392.935 173.733 394.829 172.86 396.918C171.356 400.465 171.065 404.594 170.58 408.335C169.95 413.047 169.465 417.759 168.64 422.422C168.3 424.22 167.961 426.017 167.33 427.718C167.136 428.252 166.797 429.029 166.554 429.369C166.505 429.466 166.214 429.904 166.311 429.709C166.117 430.098 166.554 429.661 166.505 429.709C166.602 429.564 166.7 429.807 166.505 429.661C166.263 429.466 166.117 429.369 165.923 429.126C165.39 428.543 165.099 427.766 164.856 427.038C164.129 425.046 163.789 422.908 163.401 420.771C162.673 416.496 162.479 411.784 160.733 407.752C160.151 406.391 159.326 405.08 157.822 404.642C156.076 404.157 154.184 405.031 153.068 406.44C150.352 409.743 150.206 414.99 149.285 418.973C148.897 420.576 148.509 423.005 147.247 424.171C146.956 424.463 146.859 424.463 146.277 424.22C145.452 423.88 144.919 422.86 144.579 422.131C143.609 420.042 143.173 417.71 142.542 415.524C142.008 413.727 141.281 411.589 139.631 410.521C137.788 409.355 135.266 409.792 133.616 411.104C131.821 412.512 131.045 414.893 130.027 416.836C129.396 418.05 128.183 420.236 126.631 418.876C125.273 417.71 124.788 415.378 124.351 413.727C123.72 411.346 123.284 408.966 122.75 406.586C122.265 404.691 121.78 402.554 120.567 400.95C118.239 397.793 114.455 399.444 113.242 402.602C111.69 406.683 111.545 411.298 110.866 415.573C110.526 417.662 110.186 419.848 109.41 421.84C109.119 422.52 108.828 423.248 108.343 423.831C108.246 423.928 107.906 424.269 108.003 424.171C107.858 424.366 107.858 424.123 108.003 424.269C107.761 424.074 107.47 424.026 107.13 423.588C106.694 423.005 106.451 422.374 106.209 421.694C105.529 419.848 105.19 417.905 104.85 415.961C104.074 411.395 103.638 406.731 102.813 402.165C102.376 399.687 101.794 395.072 98.8352 394.198C95.5366 393.226 93.9358 396.724 93.2567 399.25C92.141 403.477 91.8984 407.946 91.5589 412.269C91.1708 416.69 90.9282 421.208 89.9581 425.532C89.667 426.843 89.2304 428.252 88.5513 429.321C88.3573 429.612 88.3573 429.661 88.4058 429.515C88.4058 429.564 88.5028 429.564 88.4543 429.515C88.6968 429.612 88.3088 429.466 88.1632 429.369C88.1147 429.369 87.8722 429.126 87.7266 429.029C86.6109 427.912 86.2714 426.017 85.9803 424.56C85.5437 422.422 85.3497 420.236 85.1557 418.05C84.7676 413.63 84.6706 409.015 83.6034 404.691C82.8272 401.582 80.9354 398.521 77.2487 399.396C73.465 400.319 72.3007 404.448 71.7671 407.849C71.0395 412.609 71.1365 417.419 70.7485 422.18C70.6029 424.074 70.4574 426.115 69.7783 427.863C69.5842 428.446 69.2932 428.932 68.9051 429.369C68.7111 429.466 68.9536 429.321 68.9051 429.369C68.8081 429.418 68.7596 429.466 68.517 429.369C67.2073 428.786 66.5282 427.232 66.0431 425.969C65.2184 423.88 64.7333 421.694 64.2967 419.508C63.4236 415.33 63.1325 410.715 61.3862 406.78C60.8526 405.565 60.0764 404.448 58.6212 404.302C56.8263 404.108 55.3711 405.323 54.4979 406.78C52.0724 410.715 51.4903 415.767 49.9865 420.091C49.647 421.014 49.3074 421.937 48.8708 422.86C48.6283 423.345 48.0462 424.269 47.8036 424.317C48.1432 424.22 48.0462 424.366 47.8521 424.269C47.5611 424.074 47.3185 423.928 47.076 423.637C46.3484 422.86 45.9118 421.791 45.5237 420.819C44.5535 418.536 43.8744 416.156 42.8557 413.873C42.0796 412.172 41.1094 410.278 39.169 409.695C34.6577 408.383 32.0382 415.038 29.8553 418.099C29.5642 418.488 29.1761 418.828 28.9336 419.216C28.8851 419.313 28.691 419.411 28.594 419.459C28.9821 419.216 29.0791 419.556 28.4 419.411C26.8477 418.973 25.8775 418.099 24.7618 416.933C23.0155 415.136 21.0266 414.553 18.5041 414.796C16.9033 414.99 16.2242 417.225 18.2616 417.03Z" fill="url(#paint23_linear_1010_767)"/>
</g>
</g>
<g filter="url(#filter31_f_1010_767)">
<circle cx="393" cy="176.036" r="58.9321" transform="rotate(-177.39 393 176.036)" stroke="url(#paint24_angular_1010_767)" stroke-width="20"/>
</g>
<g filter="url(#filter32_i_1010_767)">
<circle cx="393" cy="176.036" r="51.4321" transform="rotate(-177.39 393 176.036)" stroke="url(#paint25_angular_1010_767)" stroke-width="35"/>
</g>
<defs>
<filter id="filter0_f_1010_767" x="0.876465" y="279.877" width="287.247" height="287.247" filterUnits="userSpaceOnUse" color-interpolation-filters="sRGB">
<feFlood flood-opacity="0" result="BackgroundImageFix"/>
<feBlend mode="normal" in="SourceGraphic" in2="BackgroundImageFix" result="shape"/>
<feGaussianBlur stdDeviation="17" result="effect1_foregroundBlur_1010_767"/>
</filter>
<filter id="filter1_i_1010_767" x="34.8765" y="313.877" width="219.247" height="222.247" filterUnits="userSpaceOnUse" color-interpolation-filters="sRGB">
<feFlood flood-opacity="0" result="BackgroundImageFix"/>
<feBlend mode="normal" in="SourceGraphic" in2="BackgroundImageFix" result="shape"/>
<feColorMatrix in="SourceAlpha" type="matrix" values="0 0 0 0 0 0 0 0 0 0 0 0 0 0 0 0 0 0 127 0" result="hardAlpha"/>
<feOffset dy="3"/>
<feGaussianBlur stdDeviation="7"/>
<feComposite in2="hardAlpha" operator="arithmetic" k2="-1" k3="1"/>
<feColorMatrix type="matrix" values="0 0 0 0 1 0 0 0 0 1 0 0 0 0 1 0 0 0 1 0"/>
<feBlend mode="normal" in2="shape" result="effect1_innerShadow_1010_767"/>
</filter>
<filter id="filter2_f_1010_767" x="183.962" y="223.434" width="378.845" height="378.845" filterUnits="userSpaceOnUse" color-interpolation-filters="sRGB">
<feFlood flood-opacity="0" result="BackgroundImageFix"/>
<feBlend mode="normal" in="SourceGraphic" in2="BackgroundImageFix" result="shape"/>
<feGaussianBlur stdDeviation="37.2407" result="effect1_foregroundBlur_1010_767"/>
</filter>
<filter id="filter3_f_1010_767" x="113.294" y="281.806" width="406.538" height="555.436" filterUnits="userSpaceOnUse" color-interpolation-filters="sRGB">
<feFlood flood-opacity="0" result="BackgroundImageFix"/>
<feBlend mode="normal" in="SourceGraphic" in2="BackgroundImageFix" result="shape"/>
<feGaussianBlur stdDeviation="60.8855" result="effect1_foregroundBlur_1010_767"/>
</filter>
<filter id="filter4_f_1010_767" x="275.641" y="134.15" width="381.212" height="506.975" filterUnits="userSpaceOnUse" color-interpolation-filters="sRGB">
<feFlood flood-opacity="0" result="BackgroundImageFix"/>
<feBlend mode="normal" in="SourceGraphic" in2="BackgroundImageFix" result="shape"/>
<feGaussianBlur stdDeviation="60.8855" result="effect1_foregroundBlur_1010_767"/>
</filter>
<filter id="filter5_f_1010_767" x="223.04" y="250.649" width="406.538" height="555.436" filterUnits="userSpaceOnUse" color-interpolation-filters="sRGB">
<feFlood flood-opacity="0" result="BackgroundImageFix"/>
<feBlend mode="normal" in="SourceGraphic" in2="BackgroundImageFix" result="shape"/>
<feGaussianBlur stdDeviation="60.8855" result="effect1_foregroundBlur_1010_767"/>
</filter>
<filter id="filter6_f_1010_767" x="96.4106" y="-83.9478" width="462.385" height="662.3" filterUnits="userSpaceOnUse" color-interpolation-filters="sRGB">
<feFlood flood-opacity="0" result="BackgroundImageFix"/>
<feBlend mode="normal" in="SourceGraphic" in2="BackgroundImageFix" result="shape"/>
<feGaussianBlur stdDeviation="60.8855" result="effect1_foregroundBlur_1010_767"/>
</filter>
<filter id="filter7_i_1010_767" x="244" y="255.797" width="327" height="329" filterUnits="userSpaceOnUse" color-interpolation-filters="sRGB">
<feFlood flood-opacity="0" result="BackgroundImageFix"/>
<feBlend mode="normal" in="SourceGraphic" in2="BackgroundImageFix" result="shape"/>
<feColorMatrix in="SourceAlpha" type="matrix" values="0 0 0 0 0 0 0 0 0 0 0 0 0 0 0 0 0 0 127 0" result="hardAlpha"/>
<feOffset dx="2" dy="4"/>
<feGaussianBlur stdDeviation="7"/>
<feComposite in2="hardAlpha" operator="arithmetic" k2="-1" k3="1"/>
<feColorMatrix type="matrix" values="0 0 0 0 1 0 0 0 0 1 0 0 0 0 1 0 0 0 1 0"/>
<feBlend mode="normal" in2="shape" result="effect1_innerShadow_1010_767"/>
</filter>
<filter id="filter8_f_1010_767" x="128.616" y="135.616" width="560.769" height="564.837" filterUnits="userSpaceOnUse" color-interpolation-filters="sRGB">
<feFlood flood-opacity="0" result="BackgroundImageFix"/>
<feBlend mode="normal" in="SourceGraphic" in2="BackgroundImageFix" result="shape"/>
<feGaussianBlur stdDeviation="60.1922" result="effect1_foregroundBlur_1010_767"/>
</filter>
<filter id="filter9_f_1010_767" x="19.6387" y="208.135" width="620.53" height="833.32" filterUnits="userSpaceOnUse" color-interpolation-filters="sRGB">
<feFlood flood-opacity="0" result="BackgroundImageFix"/>
<feBlend mode="normal" in="SourceGraphic" in2="BackgroundImageFix" result="shape"/>
<feGaussianBlur stdDeviation="98.4094" result="effect1_foregroundBlur_1010_767"/>
</filter>
<filter id="filter10_f_1010_767" x="245.628" y="-0.0182343" width="585.276" height="765.003" filterUnits="userSpaceOnUse" color-interpolation-filters="sRGB">
<feFlood flood-opacity="0" result="BackgroundImageFix"/>
<feBlend mode="normal" in="SourceGraphic" in2="BackgroundImageFix" result="shape"/>
<feGaussianBlur stdDeviation="98.4094" result="effect1_foregroundBlur_1010_767"/>
</filter>
<filter id="filter11_f_1010_767" x="172.408" y="164.213" width="620.53" height="833.32" filterUnits="userSpaceOnUse" color-interpolation-filters="sRGB">
<feFlood flood-opacity="0" result="BackgroundImageFix"/>
<feBlend mode="normal" in="SourceGraphic" in2="BackgroundImageFix" result="shape"/>
<feGaussianBlur stdDeviation="98.4094" result="effect1_foregroundBlur_1010_767"/>
</filter>
<filter id="filter12_f_1010_767" x="-3.86369" y="-307.474" width="698.27" height="983.968" filterUnits="userSpaceOnUse" color-interpolation-filters="sRGB">
<feFlood flood-opacity="0" result="BackgroundImageFix"/>
<feBlend mode="normal" in="SourceGraphic" in2="BackgroundImageFix" result="shape"/>
<feGaussianBlur stdDeviation="98.4094" result="effect1_foregroundBlur_1010_767"/>
</filter>
<filter id="filter13_f_1010_767" x="14.1304" y="208.36" width="624.076" height="834.584" filterUnits="userSpaceOnUse" color-interpolation-filters="sRGB">
<feFlood flood-opacity="0" result="BackgroundImageFix"/>
<feBlend mode="normal" in="SourceGraphic" in2="BackgroundImageFix" result="shape"/>
<feGaussianBlur stdDeviation="98.4094" result="effect1_foregroundBlur_1010_767"/>
</filter>
<filter id="filter14_f_1010_767" x="243.65" y="-0.391769" width="588.27" height="766.07" filterUnits="userSpaceOnUse" color-interpolation-filters="sRGB">
<feFlood flood-opacity="0" result="BackgroundImageFix"/>
<feBlend mode="normal" in="SourceGraphic" in2="BackgroundImageFix" result="shape"/>
<feGaussianBlur stdDeviation="98.4094" result="effect1_foregroundBlur_1010_767"/>
</filter>
<filter id="filter15_f_1010_767" x="169.286" y="164.311" width="624.076" height="834.584" filterUnits="userSpaceOnUse" color-interpolation-filters="sRGB">
<feFlood flood-opacity="0" result="BackgroundImageFix"/>
<feBlend mode="normal" in="SourceGraphic" in2="BackgroundImageFix" result="shape"/>
<feGaussianBlur stdDeviation="98.4094" result="effect1_foregroundBlur_1010_767"/>
</filter>
<filter id="filter16_f_1010_767" x="-9.73967" y="-308.731" width="703.03" height="985.665" filterUnits="userSpaceOnUse" color-interpolation-filters="sRGB">
<feFlood flood-opacity="0" result="BackgroundImageFix"/>
<feBlend mode="normal" in="SourceGraphic" in2="BackgroundImageFix" result="shape"/>
<feGaussianBlur stdDeviation="98.4094" result="effect1_foregroundBlur_1010_767"/>
</filter>
<filter id="filter17_i_1010_767" x="293" y="297" width="219.36" height="236.977" filterUnits="userSpaceOnUse" color-interpolation-filters="sRGB">
<feFlood flood-opacity="0" result="BackgroundImageFix"/>
<feBlend mode="normal" in="SourceGraphic" in2="BackgroundImageFix" result="shape"/>
<feColorMatrix in="SourceAlpha" type="matrix" values="0 0 0 0 0 0 0 0 0 0 0 0 0 0 0 0 0 0 127 0" result="hardAlpha"/>
<feOffset dx="1" dy="3"/>
<feGaussianBlur stdDeviation="3"/>
<feComposite in2="hardAlpha" operator="arithmetic" k2="-1" k3="1"/>
<feColorMatrix type="matrix" values="0 0 0 0 1 0 0 0 0 0.921569 0 0 0 0 0.972549 0 0 0 1 0"/>
<feBlend mode="normal" in2="shape" result="effect1_innerShadow_1010_767"/>
</filter>
<filter id="filter18_f_1010_767" x="2.84375" y="0.84375" width="196.312" height="196.313" filterUnits="userSpaceOnUse" color-interpolation-filters="sRGB">
<feFlood flood-opacity="0" result="BackgroundImageFix"/>
<feBlend mode="normal" in="SourceGraphic" in2="BackgroundImageFix" result="shape"/>
<feGaussianBlur stdDeviation="17" result="effect1_foregroundBlur_1010_767"/>
</filter>
<filter id="filter19_i_1010_767" x="36.8438" y="34.8438" width="128.312" height="131.313" filterUnits="userSpaceOnUse" color-interpolation-filters="sRGB">
<feFlood flood-opacity="0" result="BackgroundImageFix"/>
<feBlend mode="normal" in="SourceGraphic" in2="BackgroundImageFix" result="shape"/>
<feColorMatrix in="SourceAlpha" type="matrix" values="0 0 0 0 0 0 0 0 0 0 0 0 0 0 0 0 0 0 127 0" result="hardAlpha"/>
<feOffset dy="3"/>
<feGaussianBlur stdDeviation="7"/>
<feComposite in2="hardAlpha" operator="arithmetic" k2="-1" k3="1"/>
<feColorMatrix type="matrix" values="0 0 0 0 1 0 0 0 0 1 0 0 0 0 1 0 0 0 1 0"/>
<feBlend mode="normal" in2="shape" result="effect1_innerShadow_1010_767"/>
</filter>
<filter id="filter20_i_1010_767" x="95" y="79" width="220" height="222" filterUnits="userSpaceOnUse" color-interpolation-filters="sRGB">
<feFlood flood-opacity="0" result="BackgroundImageFix"/>
<feBlend mode="normal" in="SourceGraphic" in2="BackgroundImageFix" result="shape"/>
<feColorMatrix in="SourceAlpha" type="matrix" values="0 0 0 0 0 0 0 0 0 0 0 0 0 0 0 0 0 0 127 0" result="hardAlpha"/>
<feOffset dx="2" dy="4"/>
<feGaussianBlur stdDeviation="7"/>
<feComposite in2="hardAlpha" operator="arithmetic" k2="-1" k3="1"/>
<feColorMatrix type="matrix" values="0 0 0 0 1 0 0 0 0 1 0 0 0 0 1 0 0 0 1 0"/>
<feBlend mode="normal" in2="shape" result="effect1_innerShadow_1010_767"/>
</filter>
<filter id="filter21_f_1010_767" x="24.0599" y="23.4554" width="359.88" height="359.88" filterUnits="userSpaceOnUse" color-interpolation-filters="sRGB">
<feFlood flood-opacity="0" result="BackgroundImageFix"/>
<feBlend mode="normal" in="SourceGraphic" in2="BackgroundImageFix" result="shape"/>
<feGaussianBlur stdDeviation="43.1678" result="effect1_foregroundBlur_1010_767"/>
</filter>
<filter id="filter22_f_1010_767" x="-14.1616" y="-249.67" width="598.677" height="719.935" filterUnits="userSpaceOnUse" color-interpolation-filters="sRGB">
<feFlood flood-opacity="0" result="BackgroundImageFix"/>
<feBlend mode="normal" in="SourceGraphic" in2="BackgroundImageFix" result="shape"/>
<feGaussianBlur stdDeviation="116.485" result="effect1_foregroundBlur_1010_767"/>
</filter>
<filter id="filter23_f_1010_767" x="-1.46918" y="-69.5451" width="578.052" height="680.47" filterUnits="userSpaceOnUse" color-interpolation-filters="sRGB">
<feFlood flood-opacity="0" result="BackgroundImageFix"/>
<feBlend mode="normal" in="SourceGraphic" in2="BackgroundImageFix" result="shape"/>
<feGaussianBlur stdDeviation="116.485" result="effect1_foregroundBlur_1010_767"/>
</filter>
<filter id="filter24_f_1010_767" x="-150.074" y="-109.011" width="598.677" height="719.935" filterUnits="userSpaceOnUse" color-interpolation-filters="sRGB">
<feFlood flood-opacity="0" result="BackgroundImageFix"/>
<feBlend mode="normal" in="SourceGraphic" in2="BackgroundImageFix" result="shape"/>
<feGaussianBlur stdDeviation="116.485" result="effect1_foregroundBlur_1010_767"/>
</filter>
<filter id="filter25_f_1010_767" x="-155.362" y="-323.542" width="644.157" height="806.962" filterUnits="userSpaceOnUse" color-interpolation-filters="sRGB">
<feFlood flood-opacity="0" result="BackgroundImageFix"/>
<feBlend mode="normal" in="SourceGraphic" in2="BackgroundImageFix" result="shape"/>
<feGaussianBlur stdDeviation="116.485" result="effect1_foregroundBlur_1010_767"/>
</filter>
<filter id="filter26_f_1010_767" x="80.0912" y="-209.449" width="436.875" height="578.077" filterUnits="userSpaceOnUse" color-interpolation-filters="sRGB">
<feFlood flood-opacity="0" result="BackgroundImageFix"/>
<feBlend mode="normal" in="SourceGraphic" in2="BackgroundImageFix" result="shape"/>
<feGaussianBlur stdDeviation="70.576" result="effect1_foregroundBlur_1010_767"/>
</filter>
<filter id="filter27_f_1010_767" x="84.4018" y="31.6257" width="412.858" height="532.12" filterUnits="userSpaceOnUse" color-interpolation-filters="sRGB">
<feFlood flood-opacity="0" result="BackgroundImageFix"/>
<feBlend mode="normal" in="SourceGraphic" in2="BackgroundImageFix" result="shape"/>
<feGaussianBlur stdDeviation="70.576" result="effect1_foregroundBlur_1010_767"/>
</filter>
<filter id="filter28_f_1010_767" x="-78.1749" y="-45.6546" width="436.875" height="578.077" filterUnits="userSpaceOnUse" color-interpolation-filters="sRGB">
<feFlood flood-opacity="0" result="BackgroundImageFix"/>
<feBlend mode="normal" in="SourceGraphic" in2="BackgroundImageFix" result="shape"/>
<feGaussianBlur stdDeviation="70.576" result="effect1_foregroundBlur_1010_767"/>
</filter>
<filter id="filter29_f_1010_767" x="-84.3326" y="-295.471" width="489.835" height="679.417" filterUnits="userSpaceOnUse" color-interpolation-filters="sRGB">
<feFlood flood-opacity="0" result="BackgroundImageFix"/>
<feBlend mode="normal" in="SourceGraphic" in2="BackgroundImageFix" result="shape"/>
<feGaussianBlur stdDeviation="70.576" result="effect1_foregroundBlur_1010_767"/>
</filter>
<filter id="filter30_b_1010_767" x="-44" y="333" width="444" height="162" filterUnits="userSpaceOnUse" color-interpolation-filters="sRGB">
<feFlood flood-opacity="0" result="BackgroundImageFix"/>
<feGaussianBlur in="BackgroundImageFix" stdDeviation="22"/>
<feComposite in2="SourceAlpha" operator="in" result="effect1_backgroundBlur_1010_767"/>
<feBlend mode="normal" in="SourceGraphic" in2="effect1_backgroundBlur_1010_767" result="shape"/>
</filter>
<filter id="filter31_f_1010_767" x="290.067" y="73.103" width="205.867" height="205.867" filterUnits="userSpaceOnUse" color-interpolation-filters="sRGB">
<feFlood flood-opacity="0" result="BackgroundImageFix"/>
<feBlend mode="normal" in="SourceGraphic" in2="BackgroundImageFix" result="shape"/>
<feGaussianBlur stdDeviation="17" result="effect1_foregroundBlur_1010_767"/>
</filter>
<filter id="filter32_i_1010_767" x="324.067" y="107.103" width="137.867" height="140.867" filterUnits="userSpaceOnUse" color-interpolation-filters="sRGB">
<feFlood flood-opacity="0" result="BackgroundImageFix"/>
<feBlend mode="normal" in="SourceGraphic" in2="BackgroundImageFix" result="shape"/>
<feColorMatrix in="SourceAlpha" type="matrix" values="0 0 0 0 0 0 0 0 0 0 0 0 0 0 0 0 0 0 127 0" result="hardAlpha"/>
<feOffset dy="3"/>
<feGaussianBlur stdDeviation="7"/>
<feComposite in2="hardAlpha" operator="arithmetic" k2="-1" k3="1"/>
<feColorMatrix type="matrix" values="0 0 0 0 1 0 0 0 0 1 0 0 0 0 1 0 0 0 1 0"/>
<feBlend mode="normal" in2="shape" result="effect1_innerShadow_1010_767"/>
</filter>
<radialGradient id="paint0_angular_1010_767" cx="0" cy="0" r="1" gradientUnits="userSpaceOnUse" gradientTransform="translate(141.756 329.124) rotate(77.8148) scale(208.699 188.619)">
<stop stop-color="#9F2BFB"/>
<stop offset="0.338542" stop-color="#6DF4F4"/>
<stop offset="0.703125" stop-color="#FF5EEF"/>
<stop offset="1" stop-color="#F2EBAB"/>
</radialGradient>
<radialGradient id="paint1_angular_1010_767" cx="0" cy="0" r="1" gradientUnits="userSpaceOnUse" gradientTransform="translate(141.756 329.124) rotate(77.8148) scale(208.699 188.619)">
<stop stop-color="#9F2BFB"/>
<stop offset="0.338542" stop-color="#6DF4F4"/>
<stop offset="0.703125" stop-color="#FF5EEF"/>
<stop offset="1" stop-color="#F2EBAB"/>
</radialGradient>
<linearGradient id="paint2_linear_1010_767" x1="417" y1="490.667" x2="508.703" y2="494.369" gradientUnits="userSpaceOnUse">
<stop stop-color="#FFEBF8"/>
<stop offset="0.348261" stop-color="#FFEBF8"/>
<stop offset="1" stop-color="#FFEBF8" stop-opacity="0.4"/>
</linearGradient>
<linearGradient id="paint3_linear_1010_767" x1="417.94" y1="489.333" x2="489.018" y2="490.808" gradientUnits="userSpaceOnUse">
<stop stop-color="white"/>
<stop offset="1" stop-color="white" stop-opacity="0"/>
</linearGradient>
<linearGradient id="paint4_linear_1010_767" x1="449" y1="525.909" x2="509.316" y2="527.593" gradientUnits="userSpaceOnUse">
<stop stop-color="#FFEBF8"/>
<stop offset="0.348261" stop-color="#FFEBF8"/>
<stop offset="1" stop-color="#FFEBF8" stop-opacity="0.4"/>
</linearGradient>
<linearGradient id="paint5_linear_1010_767" x1="449.618" y1="524.642" x2="496.339" y2="525.312" gradientUnits="userSpaceOnUse">
<stop stop-color="white"/>
<stop offset="1" stop-color="white" stop-opacity="0"/>
</linearGradient>
<linearGradient id="paint6_linear_1010_767" x1="293" y1="462.901" x2="504.314" y2="483.757" gradientUnits="userSpaceOnUse">
<stop stop-color="#FFEBF8"/>
<stop offset="0.348261" stop-color="#FFEBF8"/>
<stop offset="1" stop-color="#FFEBF8" stop-opacity="0.4"/>
</linearGradient>
<linearGradient id="paint7_linear_1010_767" x1="295.184" y1="461.634" x2="459.943" y2="469.991" gradientUnits="userSpaceOnUse">
<stop stop-color="white"/>
<stop offset="1" stop-color="white" stop-opacity="0"/>
</linearGradient>
<linearGradient id="paint8_linear_1010_767" x1="293" y1="437.954" x2="504.314" y2="458.81" gradientUnits="userSpaceOnUse">
<stop stop-color="#FFEBF8"/>
<stop offset="0.348261" stop-color="#FFEBF8"/>
<stop offset="1" stop-color="#FFEBF8" stop-opacity="0.4"/>
</linearGradient>
<linearGradient id="paint9_linear_1010_767" x1="295.184" y1="436.687" x2="459.943" y2="445.043" gradientUnits="userSpaceOnUse">
<stop stop-color="white"/>
<stop offset="1" stop-color="white" stop-opacity="0"/>
</linearGradient>
<linearGradient id="paint10_linear_1010_767" x1="293" y1="413.006" x2="504.314" y2="433.862" gradientUnits="userSpaceOnUse">
<stop stop-color="#FFEBF8"/>
<stop offset="0.348261" stop-color="#FFEBF8"/>
<stop offset="1" stop-color="#FFEBF8" stop-opacity="0.4"/>
</linearGradient>
<linearGradient id="paint11_linear_1010_767" x1="295.184" y1="411.739" x2="459.943" y2="420.096" gradientUnits="userSpaceOnUse">
<stop stop-color="white"/>
<stop offset="1" stop-color="white" stop-opacity="0"/>
</linearGradient>
<linearGradient id="paint12_linear_1010_767" x1="293" y1="388.059" x2="504.314" y2="408.915" gradientUnits="userSpaceOnUse">
<stop stop-color="#FFEBF8"/>
<stop offset="0.348261" stop-color="#FFEBF8"/>
<stop offset="1" stop-color="#FFEBF8" stop-opacity="0.4"/>
</linearGradient>
<linearGradient id="paint13_linear_1010_767" x1="295.184" y1="386.792" x2="459.943" y2="395.149" gradientUnits="userSpaceOnUse">
<stop stop-color="white"/>
<stop offset="1" stop-color="white" stop-opacity="0"/>
</linearGradient>
<linearGradient id="paint14_linear_1010_767" x1="293" y1="363.112" x2="504.314" y2="383.968" gradientUnits="userSpaceOnUse">
<stop stop-color="#FFEBF8"/>
<stop offset="0.348261" stop-color="#FFEBF8"/>
<stop offset="1" stop-color="#FFEBF8" stop-opacity="0.4"/>
</linearGradient>
<linearGradient id="paint15_linear_1010_767" x1="295.184" y1="361.845" x2="459.943" y2="370.201" gradientUnits="userSpaceOnUse">
<stop stop-color="white"/>
<stop offset="1" stop-color="white" stop-opacity="0"/>
</linearGradient>
<linearGradient id="paint16_linear_1010_767" x1="405" y1="341.164" x2="508.13" y2="346.095" gradientUnits="userSpaceOnUse">
<stop stop-color="#FFEBF8"/>
<stop offset="0.348261" stop-color="#FFEBF8"/>
<stop offset="1" stop-color="#FFEBF8" stop-opacity="0.4"/>
</linearGradient>
<linearGradient id="paint17_linear_1010_767" x1="406.058" y1="339.897" x2="486.031" y2="341.862" gradientUnits="userSpaceOnUse">
<stop stop-color="white"/>
<stop offset="1" stop-color="white" stop-opacity="0"/>
</linearGradient>
<linearGradient id="paint18_linear_1010_767" x1="438" y1="301.667" x2="509.263" y2="303.901" gradientUnits="userSpaceOnUse">
<stop stop-color="#FFEBF8"/>
<stop offset="0.348261" stop-color="#FFEBF8"/>
<stop offset="1" stop-color="#FFEBF8" stop-opacity="0.4"/>
</linearGradient>
<linearGradient id="paint19_linear_1010_767" x1="438.73" y1="300.333" x2="493.938" y2="301.223" gradientUnits="userSpaceOnUse">
<stop stop-color="white"/>
<stop offset="1" stop-color="white" stop-opacity="0"/>
</linearGradient>
<radialGradient id="paint20_angular_1010_767" cx="0" cy="0" r="1" gradientUnits="userSpaceOnUse" gradientTransform="translate(99.3942 43.7759) rotate(77.8148) scale(122.121 110.371)">
<stop stop-color="#9F2BFB"/>
<stop offset="0.411458" stop-color="#6DF4F4"/>
<stop offset="0.661458" stop-color="#F2EBAB"/>
<stop offset="1" stop-color="#FF5EEF"/>
</radialGradient>
<radialGradient id="paint21_angular_1010_767" cx="0" cy="0" r="1" gradientUnits="userSpaceOnUse" gradientTransform="translate(99.3942 43.7759) rotate(77.8148) scale(122.121 110.371)">
<stop stop-color="#9F2BFB"/>
<stop offset="0.411458" stop-color="#FF73AE"/>
<stop offset="0.661458" stop-color="#F2EBAB"/>
<stop offset="1" stop-color="#FF5EEF"/>
</radialGradient>
<linearGradient id="paint22_linear_1010_767" x1="178" y1="377" x2="178" y2="451" gradientUnits="userSpaceOnUse">
<stop stop-color="white"/>
<stop offset="1" stop-color="white" stop-opacity="0"/>
</linearGradient>
<linearGradient id="paint23_linear_1010_767" x1="180.444" y1="388.929" x2="180.444" y2="441.961" gradientUnits="userSpaceOnUse">
<stop stop-color="#A728E2"/>
<stop offset="1" stop-color="#FF5EEF"/>
</linearGradient>
<radialGradient id="paint24_angular_1010_767" cx="0" cy="0" r="1" gradientUnits="userSpaceOnUse" gradientTransform="translate(391.275 116.691) rotate(77.8148) scale(131.234 118.608)">
<stop stop-color="#9F2BFB"/>
<stop offset="0.411458" stop-color="#6DF4F4"/>
<stop offset="0.661458" stop-color="#F2EBAB"/>
<stop offset="1" stop-color="#FF5EEF"/>
</radialGradient>
<radialGradient id="paint25_angular_1010_767" cx="0" cy="0" r="1" gradientUnits="userSpaceOnUse" gradientTransform="translate(391.275 116.691) rotate(77.8148) scale(131.234 118.608)">
<stop stop-color="#9F2BFB"/>
<stop offset="0.411458" stop-color="#6DF4F4"/>
<stop offset="0.661458" stop-color="#F2EBAB"/>
<stop offset="1" stop-color="#FF5EEF"/>
</radialGradient>
<clipPath id="clip0_1010_767">
<rect width="43" height="29" fill="white" transform="translate(241 104)"/>
</clipPath>
</defs>
</svg>
