<svg width="450" height="518" viewBox="0 0 450 518" fill="none" xmlns="http://www.w3.org/2000/svg">
    <g filter="url(#filter0_i_9_235)">
        <rect x="154" y="223" width="295" height="295" rx="147.5" fill="url(#paint0_linear_9_235)" />
    </g>
    <g filter="url(#filter1_b_9_235)">
        <rect x="94" y="368" width="356" height="74" rx="18" fill="white" fill-opacity="0.02" />
        <rect x="94.5" y="368.5" width="355" height="73" rx="17.5"
            stroke="url(#paint1_linear_9_235)" />
    </g>
    <g opacity="0.93">
        <g opacity="0.93">
            <path opacity="0.93"
                d="M112.261 408.03C113.329 407.933 114.493 407.982 115.366 408.613C116.482 409.488 117.258 410.702 118.47 411.479C120.653 412.937 123.418 413.034 125.359 411.139C127.008 409.488 127.978 407.253 129.337 405.31C130.21 404.047 131.422 402.006 132.878 403.561C134.381 405.213 135.061 407.69 135.788 409.73C136.564 411.868 137.244 414.346 138.747 416.094C139.96 417.503 141.803 418.038 143.55 417.212C145.151 416.434 146.024 414.734 146.654 413.18C148.449 408.856 149.08 404.047 150.972 399.772C151.263 399.092 151.942 398.411 152.184 397.731C152.33 397.391 152.378 397.829 152.039 397.683C151.893 397.634 151.893 397.537 152.136 397.829C152.96 398.8 153.397 400.452 153.688 401.763C154.804 406.233 155.289 410.896 156.502 415.366C157.326 418.426 158.782 422.993 162.711 422.847C166.495 422.653 167.416 418.62 167.853 415.56C168.483 410.896 168.338 406.184 168.774 401.472C168.968 399.383 169.211 397.197 169.987 395.254C170.278 394.574 170.569 393.845 171.103 393.311C171.539 392.873 171.831 392.728 172.219 392.679C172.461 392.679 172.801 392.728 173.189 393.068C173.674 393.456 173.965 394.088 174.207 394.622C174.984 396.323 175.275 398.266 175.517 400.063C176.196 404.678 176.245 409.39 176.875 414.005C177.264 416.823 177.749 421.438 180.853 422.604C183.958 423.77 185.995 421.001 186.771 418.426C188.081 414.346 188.324 409.925 188.712 405.65C189.1 401.132 189.342 396.565 190.215 392.145C190.507 390.687 190.749 389.084 191.525 387.821C191.622 387.675 191.768 387.53 191.913 387.335C191.865 387.384 191.962 387.287 191.962 387.287C191.428 387.287 191.622 387.287 191.816 387.53C192.786 388.647 193.175 390.104 193.563 391.562C194.096 393.602 194.387 395.74 194.727 397.829C195.357 402.346 195.794 406.913 196.861 411.334C197.492 413.957 198.656 417.892 202.1 417.503C206.029 417.115 207.097 412.305 207.727 409.148C208.649 404.63 208.843 399.966 209.959 395.497C210.153 394.719 210.395 393.894 210.783 393.214C210.929 392.971 211.074 392.776 211.171 392.582C211.414 392.193 211.268 392.679 211.026 392.533C210.783 392.388 211.22 392.582 211.22 392.582C211.463 392.825 211.705 392.971 211.948 393.214C212.53 393.894 212.869 394.817 213.16 395.691C214.664 400.063 214.81 404.873 216.75 409.099C217.478 410.653 218.496 412.159 220.291 412.499C222.571 412.937 224.803 411.819 226.112 409.973C227.422 408.127 227.956 405.747 229.411 403.998C230.672 402.444 231.982 403.269 232.807 404.775C234.747 408.37 234.359 413.908 237.706 416.629C239.258 417.892 241.49 417.94 243.139 416.872C244.691 415.851 245.419 414.054 245.952 412.305C247.262 408.03 247.262 403.172 249.348 399.189C249.639 398.654 250.027 398.12 250.464 397.829C250.512 397.829 250.803 397.829 250.512 397.78C250.755 397.829 250.852 397.926 251.094 398.12C252.162 399.14 252.55 401.035 252.889 402.395C254.005 407.01 254.296 411.771 255.412 416.386C256.042 419.106 257.401 423.673 261.136 422.798C264.143 422.07 264.92 418.038 265.502 415.511C266.52 411.042 267.005 406.427 267.588 401.909C268.121 397.78 268.461 393.505 269.625 389.521C269.819 388.939 270.013 388.356 270.256 387.773C270.353 387.53 270.498 387.384 270.498 387.335C270.595 387.044 270.595 387.335 270.256 387.384C270.062 387.433 269.431 387.384 269.479 387.335C269.528 387.287 269.722 387.53 269.722 387.578C270.013 388.016 270.159 388.356 270.353 388.841C271.614 392.291 271.953 396.128 272.39 399.723C273.021 404.581 273.506 409.488 274.233 414.345C274.767 417.94 275.252 421.875 276.804 425.227C277.969 427.753 280.442 429.016 282.916 427.025C285.681 424.79 286.021 419.884 286.506 416.629C287.137 412.014 287.428 407.35 288.252 402.735C288.544 401.229 288.835 399.529 289.659 398.169C289.659 398.169 289.999 397.634 289.902 397.829C289.95 397.634 289.708 398.023 289.611 397.877C289.902 398.509 289.077 397.294 289.562 397.877C289.611 397.926 289.853 397.974 289.902 398.023C290.241 398.266 290.484 398.509 290.726 398.8C291.939 400.403 292.376 402.638 292.861 404.581C293.394 406.864 293.782 409.196 294.462 411.479C295.48 415.123 297.712 418.912 302.078 416.969C306.395 415.026 306.298 409.245 307.414 405.358C307.947 403.512 308.287 402.492 310.13 403.658C312.167 404.97 313.041 407.593 314.205 409.585C315.272 411.382 316.776 412.84 319.007 412.548C320.996 412.305 322.209 410.702 323.082 409.05C324.198 406.864 324.925 404.484 325.896 402.249C326.478 400.889 327.545 398.071 329.243 397.731C331.668 397.294 332.202 405.067 332.396 406.573C332.881 410.945 332.832 416.143 334.967 420.126C336.471 422.944 340.012 423.624 342.001 420.904C344.135 418.038 344.523 413.714 345.105 410.265C345.833 405.747 346.366 401.181 347.434 396.76C347.773 395.4 348.21 393.894 348.937 392.825C349.18 392.485 349.131 392.631 349.131 392.582C349.18 392.679 348.695 392.631 348.695 392.679C348.743 392.631 349.083 392.922 349.422 393.359C350.344 394.622 350.684 396.371 351.023 397.877C351.508 400.112 351.848 402.395 352.187 404.678C352.818 409.148 353.158 413.763 354.516 418.086C355.341 420.758 357.281 423.818 360.531 422.264C363.296 420.952 363.878 416.872 364.315 414.248C365.916 405.164 365.479 395.788 367.177 386.704C367.468 385.247 367.759 383.741 368.535 382.429C368.487 382.526 368.778 382.186 368.826 382.089C368.826 382.089 368.875 382.186 368.632 382.186C368.778 382.186 368.195 382.137 368.147 382.137C368.244 382.137 368.293 382.235 368.244 382.186C369.796 383.983 370.087 387.141 370.427 389.473C371.882 398.654 372.173 407.982 373.095 417.212C373.483 420.952 373.823 424.79 374.793 428.433C375.278 430.377 376.151 433.146 378.673 432.951C381.73 432.708 382.651 429.114 383.185 426.636C384.203 422.264 384.543 417.697 384.931 413.228C385.368 408.565 385.707 403.852 386.483 399.237C386.775 397.586 387.066 395.885 387.648 394.282C387.793 393.845 388.133 393.116 388.327 392.873C388.521 392.631 388.618 392.485 388.618 392.533C388.618 392.533 388.521 392.485 388.327 392.631C388.133 392.728 388.278 392.582 388.327 392.679C388.521 392.825 388.618 392.873 388.763 393.068C389.2 393.602 389.491 394.185 389.685 394.817C390.364 396.663 390.704 398.606 391.043 400.5C391.771 405.115 392.111 409.73 392.935 414.345C393.372 416.92 393.954 421.632 396.913 422.653C400.745 424.013 403.025 419.641 403.85 416.726C405.159 412.257 405.402 407.544 406.227 402.978C406.518 401.326 406.809 399.48 407.682 398.071C408.021 397.488 407.633 398.071 407.536 397.926C407.633 398.023 407.924 398.12 408.021 398.217C408.361 398.509 408.652 398.946 408.846 399.335C410.981 403.172 411.029 408.079 412.339 412.257C413.212 415.026 415.346 418.961 418.936 417.357C423.302 415.414 423.884 409.293 425.048 405.407C425.291 404.63 425.63 403.367 426.552 403.221C427.474 403.124 428.735 403.95 429.511 404.387C431.597 405.553 433.537 407.059 435.914 407.544C437.37 407.884 438.922 405.796 436.981 405.358C432.858 404.435 428.444 398.46 424.029 402.055C421.458 404.144 421.604 408.37 420.488 411.236C420.052 412.305 419.567 413.422 418.888 414.394C418.694 414.637 418.402 414.977 418.208 415.171C418.111 415.269 417.529 415.754 417.82 415.463C417.481 415.803 417.578 415.317 417.82 415.511C418.111 415.754 417.82 415.414 417.82 415.414C417.529 414.977 416.85 414.686 416.511 414.151C415.346 412.354 414.91 409.973 414.473 407.933C413.94 405.65 413.552 403.318 412.872 401.035C412.387 399.383 411.757 397.488 410.35 396.42C409.089 395.448 407.245 395.448 405.936 396.371C404.674 397.343 404.141 398.994 403.753 400.452C402.54 404.921 402.394 409.585 401.473 414.103C401.085 415.949 400.697 418.038 399.581 419.641C399.338 419.981 398.756 420.515 398.756 420.515C398.562 420.612 398.611 420.515 398.708 420.564C398.611 420.515 398.465 420.466 398.223 420.272C397.301 419.398 396.864 417.649 396.573 416.434C396.04 414.297 395.7 412.159 395.409 409.973C394.778 405.455 394.487 400.889 393.42 396.42C392.79 393.796 391.577 389.716 388.036 390.444C385.174 391.076 384.398 394.525 383.864 396.954C382.894 401.278 382.554 405.747 382.166 410.168C381.73 414.928 381.39 419.689 380.565 424.401C380.274 426.005 379.983 427.705 379.353 429.211C379.159 429.648 378.867 430.28 378.673 430.522C378.334 431.008 378.382 430.765 379.013 430.668C379.207 430.62 379.11 430.814 378.916 430.522C378.625 430.134 378.479 429.842 378.285 429.405C377.752 428.045 377.412 426.587 377.17 425.179C376.394 421.098 376.054 416.92 375.666 412.742C374.89 403.852 374.696 394.719 372.852 385.975C372.464 384.129 371.931 380.874 369.845 380.146C366.837 379.028 365.188 382.477 364.557 384.761C363.442 388.793 363.199 393.068 362.859 397.197C362.471 402.104 362.18 407.01 361.55 411.868C361.307 413.811 361.016 415.803 360.434 417.697C360.24 418.329 360.046 418.961 359.755 419.543C359.561 419.932 359.076 420.418 359.027 420.515C359.027 420.564 359.173 420.369 359.27 420.418C359.221 420.369 359.367 420.564 359.076 420.369C358.882 420.224 358.445 419.689 358.203 419.252C357.378 417.746 356.99 415.949 356.65 414.297C355.68 409.585 355.244 404.775 354.467 400.063C353.982 397.294 353.546 392.582 350.926 390.93C347.919 389.036 345.639 392.436 344.863 394.914C343.553 398.946 343.068 403.269 342.437 407.496C341.855 411.334 341.467 415.657 339.769 419.252C339.527 419.738 339.139 420.224 338.944 420.515C338.75 420.758 339.042 420.466 338.993 420.515C339.187 420.321 339.236 420.661 338.993 420.418C337.683 419.252 337.198 417.989 336.762 416.289C335.597 411.674 335.646 406.816 334.821 402.152C334.191 398.703 332.784 394.477 328.418 395.74C323.955 397.051 322.645 402.881 321.093 406.621C320.705 407.544 320.317 408.516 319.783 409.39C319.589 409.682 319.347 410.168 319.056 410.362C318.716 410.605 319.153 410.411 318.959 410.411C317.212 410.168 316.097 406.767 315.369 405.504C314.108 403.269 312.361 401.278 309.693 400.938C307.705 400.695 305.958 401.715 305.037 403.464C304.066 405.31 303.824 407.544 303.387 409.585C303.048 411.285 302.611 414.103 300.962 415.074C298.1 416.726 296.79 408.322 296.45 406.864C295.723 403.609 295.238 397.731 291.697 396.08C288.252 394.477 286.312 397.877 285.536 400.646C284.372 404.97 284.178 409.585 283.644 414.005C283.402 416.24 283.11 418.523 282.625 420.758C282.286 422.264 281.946 423.964 281.025 425.276C280.831 425.567 280.685 425.567 280.539 425.762C280.588 425.664 280.491 425.762 280.685 425.713C280.734 425.713 280.734 425.859 280.637 425.664C280.685 425.762 280.491 425.519 280.394 425.47C279.569 424.499 279.133 423.236 278.745 422.021C277.532 417.94 276.998 413.665 276.465 409.488C275.834 404.727 275.349 399.917 274.621 395.157C274.185 392.388 273.991 388.598 272.244 386.315C270.498 383.935 267.733 385.829 266.86 387.918C265.356 391.465 265.065 395.594 264.58 399.335C263.949 404.047 263.464 408.759 262.64 413.422C262.3 415.22 261.96 417.017 261.33 418.718C261.136 419.252 260.796 420.029 260.554 420.369C260.505 420.466 260.214 420.904 260.311 420.709C260.117 421.098 260.554 420.661 260.505 420.709C260.602 420.564 260.699 420.807 260.505 420.661C260.263 420.466 260.117 420.369 259.923 420.126C259.39 419.543 259.098 418.766 258.856 418.038C258.128 416.046 257.789 413.908 257.401 411.771C256.673 407.496 256.479 402.784 254.733 398.752C254.151 397.391 253.326 396.08 251.822 395.642C250.076 395.157 248.184 396.031 247.068 397.44C244.352 400.743 244.206 405.99 243.284 409.973C242.896 411.576 242.508 414.005 241.247 415.171C240.956 415.463 240.859 415.463 240.277 415.22C239.452 414.88 238.919 413.86 238.579 413.131C237.609 411.042 237.172 408.71 236.542 406.524C236.008 404.727 235.28 402.589 233.631 401.521C231.788 400.355 229.265 400.792 227.616 402.104C225.821 403.512 225.045 405.893 224.026 407.836C223.396 409.05 222.183 411.236 220.631 409.876C219.272 408.71 218.787 406.378 218.351 404.727C217.72 402.346 217.284 399.966 216.75 397.586C216.265 395.691 215.78 393.554 214.567 391.95C212.239 388.793 208.455 390.444 207.242 393.602C205.69 397.683 205.544 402.298 204.865 406.573C204.526 408.662 204.186 410.848 203.41 412.84C203.119 413.52 202.828 414.248 202.343 414.831C202.246 414.928 201.906 415.269 202.003 415.171C201.858 415.366 201.858 415.123 202.003 415.269C201.761 415.074 201.47 415.026 201.13 414.588C200.693 414.005 200.451 413.374 200.208 412.694C199.529 410.848 199.19 408.905 198.85 406.961C198.074 402.395 197.637 397.731 196.813 393.165C196.376 390.687 195.794 386.072 192.835 385.198C189.536 384.226 187.936 387.724 187.256 390.25C186.141 394.477 185.898 398.946 185.559 403.269C185.171 407.69 184.928 412.208 183.958 416.532C183.667 417.843 183.23 419.252 182.551 420.321C182.357 420.612 182.357 420.661 182.406 420.515C182.406 420.564 182.503 420.564 182.454 420.515C182.697 420.612 182.309 420.466 182.163 420.369C182.114 420.369 181.872 420.126 181.726 420.029C180.611 418.912 180.271 417.017 179.98 415.56C179.543 413.422 179.349 411.236 179.155 409.05C178.767 404.63 178.67 400.015 177.603 395.691C176.827 392.582 174.935 389.521 171.248 390.396C167.465 391.319 166.3 395.448 165.767 398.849C165.039 403.609 165.136 408.419 164.748 413.18C164.603 415.074 164.457 417.115 163.778 418.863C163.584 419.446 163.293 419.932 162.905 420.369C162.711 420.466 162.953 420.321 162.905 420.369C162.808 420.418 162.759 420.466 162.517 420.369C161.207 419.786 160.528 418.232 160.043 416.969C159.218 414.88 158.733 412.694 158.296 410.508C157.423 406.33 157.132 401.715 155.386 397.78C154.852 396.565 154.076 395.448 152.621 395.302C150.826 395.108 149.371 396.323 148.498 397.78C146.072 401.715 145.49 406.767 143.986 411.091C143.647 412.014 143.307 412.937 142.871 413.86C142.628 414.345 142.046 415.269 141.803 415.317C142.143 415.22 142.046 415.366 141.852 415.269C141.561 415.074 141.318 414.928 141.076 414.637C140.348 413.86 139.912 412.791 139.523 411.819C138.553 409.536 137.874 407.156 136.855 404.873C136.079 403.172 135.109 401.278 133.169 400.695C128.657 399.383 126.038 406.038 123.855 409.099C123.564 409.488 123.176 409.828 122.933 410.216C122.885 410.313 122.691 410.411 122.594 410.459C122.982 410.216 123.079 410.556 122.4 410.411C120.847 409.973 119.877 409.099 118.762 407.933C117.015 406.136 115.026 405.553 112.504 405.796C110.903 405.99 110.224 408.225 112.261 408.03Z"
                fill="url(#paint2_linear_9_235)" />
        </g>
    </g>
    <g filter="url(#filter2_f_9_235)">
        <g filter="url(#filter3_i_9_235)">
            <path d="M189.75 189.75H261.25M142.083 237.417H261.25" stroke="#236AF2"
                stroke-width="24" stroke-linecap="round" stroke-linejoin="round" />
        </g>
        <g filter="url(#filter4_i_9_235)">
            <path
                d="M142.083 154C142.072 162.004 140.124 169.886 136.405 176.974C132.685 184.061 127.305 190.142 120.723 194.697C114.142 199.253 106.556 202.147 98.6126 203.132C90.6695 204.117 82.6059 203.165 75.1111 200.356C66.965 197.113 59.9424 191.563 54.9044 184.388C49.8665 177.212 47.0323 168.722 46.7494 159.958C46.4029 151.129 48.9351 142.427 53.9646 135.162C58.9941 127.897 66.2484 122.463 74.6344 119.68L119.799 102.758C126.34 100.291 131.975 95.8912 135.955 90.144C139.936 84.3968 142.073 77.5743 142.083 70.5833V70.5833C142.083 64.2623 139.572 58.2002 135.102 53.7306C130.632 49.261 124.57 46.75 118.249 46.75C111.928 46.75 105.866 49.261 101.397 53.7306C96.9271 58.2002 94.4161 64.2623 94.4161 70.5833V237.417C94.4161 243.738 91.9051 249.8 87.4354 254.269C82.9658 258.739 76.9037 261.25 70.5827 261.25C64.2617 261.25 58.1996 258.739 53.73 254.269C49.2604 249.8 46.7494 243.738 46.7494 237.417"
                stroke="#236AF2" stroke-width="24" stroke-linecap="round" stroke-linejoin="round" />
        </g>
    </g>
    <g filter="url(#filter5_i_9_235)">
        <rect x="4" y="18" width="325" height="325" rx="50" fill="url(#paint3_linear_9_235)" />
    </g>
    <defs>
        <filter id="filter0_i_9_235" x="154" y="223" width="295" height="309"
            filterUnits="userSpaceOnUse" color-interpolation-filters="sRGB">
            <feFlood flood-opacity="0" result="BackgroundImageFix" />
            <feBlend mode="normal" in="SourceGraphic" in2="BackgroundImageFix" result="shape" />
            <feColorMatrix in="SourceAlpha" type="matrix"
                values="0 0 0 0 0 0 0 0 0 0 0 0 0 0 0 0 0 0 127 0" result="hardAlpha" />
            <feOffset dy="14" />
            <feGaussianBlur stdDeviation="17" />
            <feComposite in2="hardAlpha" operator="arithmetic" k2="-1" k3="1" />
            <feColorMatrix type="matrix" values="0 0 0 0 1 0 0 0 0 1 0 0 0 0 1 0 0 0 0.74 0" />
            <feBlend mode="normal" in2="shape" result="effect1_innerShadow_9_235" />
        </filter>
        <filter id="filter1_b_9_235" x="50" y="324" width="444" height="162"
            filterUnits="userSpaceOnUse" color-interpolation-filters="sRGB">
            <feFlood flood-opacity="0" result="BackgroundImageFix" />
            <feGaussianBlur in="BackgroundImageFix" stdDeviation="22" />
            <feComposite in2="SourceAlpha" operator="in" result="effect1_backgroundBlur_9_235" />
            <feBlend mode="normal" in="SourceGraphic" in2="effect1_backgroundBlur_9_235"
                result="shape" />
        </filter>
        <filter id="filter2_f_9_235" x="-23" y="-23" width="354" height="354"
            filterUnits="userSpaceOnUse" color-interpolation-filters="sRGB">
            <feFlood flood-opacity="0" result="BackgroundImageFix" />
            <feBlend mode="normal" in="SourceGraphic" in2="BackgroundImageFix" result="shape" />
            <feGaussianBlur stdDeviation="17" result="effect1_foregroundBlur_9_235" />
        </filter>
        <filter id="filter3_i_9_235" x="130.083" y="177.75" width="143.167" height="75.6666"
            filterUnits="userSpaceOnUse" color-interpolation-filters="sRGB">
            <feFlood flood-opacity="0" result="BackgroundImageFix" />
            <feBlend mode="normal" in="SourceGraphic" in2="BackgroundImageFix" result="shape" />
            <feColorMatrix in="SourceAlpha" type="matrix"
                values="0 0 0 0 0 0 0 0 0 0 0 0 0 0 0 0 0 0 127 0" result="hardAlpha" />
            <feOffset dy="4" />
            <feGaussianBlur stdDeviation="2" />
            <feComposite in2="hardAlpha" operator="arithmetic" k2="-1" k3="1" />
            <feColorMatrix type="matrix" values="0 0 0 0 1 0 0 0 0 1 0 0 0 0 1 0 0 0 1 0" />
            <feBlend mode="normal" in2="shape" result="effect1_innerShadow_9_235" />
        </filter>
        <filter id="filter4_i_9_235" x="34.718" y="34.75" width="119.365" height="242.5"
            filterUnits="userSpaceOnUse" color-interpolation-filters="sRGB">
            <feFlood flood-opacity="0" result="BackgroundImageFix" />
            <feBlend mode="normal" in="SourceGraphic" in2="BackgroundImageFix" result="shape" />
            <feColorMatrix in="SourceAlpha" type="matrix"
                values="0 0 0 0 0 0 0 0 0 0 0 0 0 0 0 0 0 0 127 0" result="hardAlpha" />
            <feOffset dy="4" />
            <feGaussianBlur stdDeviation="2" />
            <feComposite in2="hardAlpha" operator="arithmetic" k2="-1" k3="1" />
            <feColorMatrix type="matrix" values="0 0 0 0 1 0 0 0 0 1 0 0 0 0 1 0 0 0 1 0" />
            <feBlend mode="normal" in2="shape" result="effect1_innerShadow_9_235" />
        </filter>
        <filter id="filter5_i_9_235" x="4" y="18" width="329" height="334"
            filterUnits="userSpaceOnUse" color-interpolation-filters="sRGB">
            <feFlood flood-opacity="0" result="BackgroundImageFix" />
            <feBlend mode="normal" in="SourceGraphic" in2="BackgroundImageFix" result="shape" />
            <feColorMatrix in="SourceAlpha" type="matrix"
                values="0 0 0 0 0 0 0 0 0 0 0 0 0 0 0 0 0 0 127 0" result="hardAlpha" />
            <feOffset dx="4" dy="9" />
            <feGaussianBlur stdDeviation="7" />
            <feComposite in2="hardAlpha" operator="arithmetic" k2="-1" k3="1" />
            <feColorMatrix type="matrix" values="0 0 0 0 1 0 0 0 0 1 0 0 0 0 1 0 0 0 0.74 0" />
            <feBlend mode="normal" in2="shape" result="effect1_innerShadow_9_235" />
        </filter>
        <linearGradient id="paint0_linear_9_235" x1="-51.5585" y1="105" x2="562.92" y2="597.399"
            gradientUnits="userSpaceOnUse">
            <stop stop-color="#A728E2" />
            <stop offset="1" stop-color="#F4AADC" />
        </linearGradient>
        <linearGradient id="paint1_linear_9_235" x1="272" y1="368" x2="272" y2="442"
            gradientUnits="userSpaceOnUse">
            <stop stop-color="white" />
            <stop offset="1" stop-color="white" stop-opacity="0" />
        </linearGradient>
        <linearGradient id="paint2_linear_9_235" x1="274.444" y1="379.929" x2="274.444" y2="432.961"
            gradientUnits="userSpaceOnUse">
            <stop stop-color="white" />
            <stop offset="1" stop-color="white" stop-opacity="0" />
        </linearGradient>
        <linearGradient id="paint3_linear_9_235" x1="-222.463" y1="-112" x2="454.505" y2="430.473"
            gradientUnits="userSpaceOnUse">
            <stop stop-color="#00B2FF" />
            <stop offset="1" stop-color="#F4AADC" />
        </linearGradient>
    </defs>
</svg>