<svg width="84" height="60" viewBox="0 0 84 60" fill="none" xmlns="http://www.w3.org/2000/svg">
    <path
        d="M83.1218 42.2163C82.9259 43.1223 82.7678 44.0409 82.5234 44.9364C80.5576 52.1254 76.0866 56.982 68.9608 59.2596C67.6018 59.6936 66.1248 59.9338 64.6984 59.9549C59.1697 60.0329 53.641 59.9865 48.1102 59.9844C47.8995 59.9844 47.6888 59.9591 47.4275 59.9423V42.0751C49.2227 42.0751 50.9862 42.0793 52.7498 42.0709C53.0953 42.0709 53.4598 42.0835 53.7843 41.9845C55.0295 41.6053 55.4151 40.2104 54.5849 39.0411C53.1416 37.0078 51.6689 34.9936 50.2066 32.9709C48.0069 29.9263 45.8094 26.8817 43.6055 23.8413C42.5014 22.318 41.2436 22.3243 40.1311 23.8645C36.5303 28.8412 32.9252 33.8137 29.3518 38.8093C29.0273 39.2644 28.7492 39.8628 28.7323 40.4043C28.7028 41.3946 29.5351 42.0583 30.6202 42.0688C32.4722 42.0899 34.3221 42.0899 36.1742 42.0983C36.1995 42.0983 36.2248 42.1109 36.3217 42.1362V59.9402C36.0204 59.9549 35.7085 59.9823 35.3988 59.9823C29.4677 59.9844 23.5344 59.9718 17.6033 59.9886C12.5149 60.0034 8.3958 57.9006 5.14895 54.1165C1.74618 50.1511 0.174377 45.5221 0.802256 40.2694C1.388 35.3749 3.75836 31.5023 7.72158 28.5905C7.74265 28.5736 7.76793 28.561 7.789 28.5462C8.5166 28.056 8.77998 27.3719 8.57911 26.494C6.59855 17.8365 14.5524 10.3693 23.054 12.904C23.2078 12.9504 23.3616 12.9925 23.5808 13.0557C23.9958 12.3309 24.3835 11.5787 24.8387 10.8666C28.7534 4.75004 34.2716 1.06283 41.5048 0.175791C52.7139 -1.20006 63.0529 5.62022 66.2639 16.4311C66.6052 17.5794 66.7991 18.7783 66.9824 19.9666C67.0561 20.4386 67.2078 20.664 67.6692 20.782C76.2889 22.9522 81.1497 28.62 82.8942 37.1764C82.9743 37.5662 83.046 37.9581 83.1197 38.3479V42.2142L83.1218 42.2163Z"
        fill="url(#paint0_linear_159_579)" />
    <defs>
        <linearGradient id="paint0_linear_159_579" x1="0.666748" y1="0" x2="57.7574" y2="78.4569"
            gradientUnits="userSpaceOnUse">
            <stop stop-color="#6765EF" />
            <stop offset="1" stop-color="#8C8BEA" />
        </linearGradient>
    </defs>
</svg>    