<svg width="67" height="67" viewBox="0 0 67 67" fill="none" xmlns="http://www.w3.org/2000/svg">
    <path
        d="M3.05176e-05 52.7339C0.370493 52.2586 0.695057 51.7406 1.11633 51.316C4.12265 48.2835 7.15356 45.2739 10.1648 42.2462C10.7811 41.6266 11.4729 41.3021 12.3384 41.5545C13.635 41.9332 14.1579 43.4494 13.3809 44.5575C13.2203 44.787 13.0137 44.987 12.8138 45.187C9.79597 48.2081 6.7749 51.2291 3.75547 54.2486C2.28673 55.7189 1.03929 55.5632 3.05176e-05 53.7814C3.05176e-05 53.4322 3.05176e-05 53.0831 3.05176e-05 52.7339Z"
        fill="url(#paint0_linear_159_565)" />
    <path
        d="M3.05176e-05 64.5133C0.370493 64.0379 0.695057 63.5199 1.11633 63.0954C4.12265 60.0628 7.15356 57.0549 10.1632 54.0256C10.7631 53.4224 11.4368 53.1011 12.2761 53.3077C13.5973 53.6322 14.1694 55.2075 13.3858 56.332C13.2252 56.5615 13.0187 56.7631 12.8187 56.9631C9.87793 59.9071 6.9421 62.8561 3.9866 65.7853C3.53254 66.2361 2.98832 66.5968 2.48672 67H1.43926C0.790131 66.6902 0.303285 66.2165 3.05176e-05 65.5608C3.05176e-05 65.2116 3.05176e-05 64.8625 3.05176e-05 64.5133Z"
        fill="url(#paint1_linear_159_565)" />
    <path
        d="M67.0029 2.2068C66.8685 2.70021 66.68 3.41327 66.4767 4.12304C61.428 21.7888 56.3775 39.453 51.3239 57.1172C50.8206 58.8744 49.4797 59.3711 47.9684 58.3646C43.2343 55.2141 38.4986 52.0668 33.7794 48.8916C33.2761 48.5523 32.9991 48.5293 32.545 48.9916C29.5633 52.0241 26.5537 55.0305 23.5244 58.0138C23.1409 58.3908 22.6098 58.7252 22.095 58.8384C21.0754 59.0596 20.1837 58.3368 19.8985 57.1614C18.974 53.3585 18.0659 49.5506 17.1561 45.7443C16.4479 42.7839 15.7562 39.8186 15.0218 36.8647C14.9431 36.5483 14.6907 36.2008 14.417 36.0189C10.1157 33.124 5.79962 30.2488 1.47865 27.3802C0.873779 26.9786 0.378737 26.5163 0.277106 25.7607C0.145968 24.7886 0.691827 23.969 1.7524 23.5674C3.80633 22.7871 5.86518 22.0233 7.9224 21.2528C26.5521 14.2665 45.1834 7.27853 63.8147 0.295482C64.1392 0.17418 64.4769 0.0659925 64.8179 0.0184553C65.9817 -0.145466 67.0226 0.79872 67.0046 2.20844L67.0029 2.2068ZM48.7011 15.6746C48.6716 15.65 48.6437 15.627 48.6142 15.6025C38.8232 22.315 29.0338 29.0309 19.2362 35.732C18.9018 35.9615 18.9232 36.2025 18.9969 36.5057C19.9428 40.4365 20.8886 44.3674 21.8377 48.2966C21.8688 48.4261 21.9328 48.5457 22.0344 48.8047C22.7458 46.2279 23.3835 43.7904 24.1064 41.3775C24.2916 40.7611 24.6424 40.1235 25.0915 39.6661C32.804 31.8077 40.5427 23.9772 48.2749 16.1385C48.4224 15.9893 48.5601 15.8303 48.7011 15.6746Z"
        fill="url(#paint2_linear_159_565)" />
    <defs>
        <linearGradient id="paint0_linear_159_565" x1="3.05176e-05" y1="41.4684" x2="13.7773"
            y2="55.2131" gradientUnits="userSpaceOnUse">
            <stop stop-color="#00B2FF" />
            <stop offset="1" stop-color="#F4AADC" />
        </linearGradient>
        <linearGradient id="paint1_linear_159_565" x1="3.05176e-05" y1="53.2451" x2="13.755"
            y2="66.9868" gradientUnits="userSpaceOnUse">
            <stop stop-color="#00B2FF" />
            <stop offset="1" stop-color="#F4AADC" />
        </linearGradient>
        <linearGradient id="paint2_linear_159_565" x1="0.257904" y1="0" x2="58.6774" y2="66.2254"
            gradientUnits="userSpaceOnUse">
            <stop stop-color="#00B2FF" />
            <stop offset="1" stop-color="#F4AADC" />
        </linearGradient>
    </defs>
</svg>    