<svg width="58" height="67" viewBox="0 0 58 67" fill="none" xmlns="http://www.w3.org/2000/svg">
    <path
        d="M35.4829 0.00174795C36.3412 0.223738 37.2204 0.386297 38.0542 0.676456C43.0865 2.43489 46.28 7.45326 45.7958 12.7897C45.3291 17.9462 41.3543 22.2584 36.2328 23.1673C29.7304 24.321 23.6039 19.9808 22.5586 13.4819C21.5413 7.14562 26.0283 1.04527 32.3786 0.1276C32.5009 0.110121 32.6163 0.0436987 32.7352 0C33.6511 0 34.567 0 35.4829 0V0.00174795ZM38.1538 6.2699C36.0825 8.47406 34.0619 10.6258 32.0185 12.8002C31.3053 11.963 30.6481 11.1869 29.9594 10.3776C28.9054 11.269 27.8986 12.1203 26.8725 12.9873C27.972 14.2947 29.0208 15.5463 30.0765 16.7943C31.2949 18.2346 32.445 18.2591 33.7525 16.873C36.0545 14.4293 38.3513 11.9804 40.6499 9.53332C40.7932 9.38124 40.9208 9.21519 41.0799 9.02641C40.094 8.0965 39.1432 7.20155 38.1556 6.27164L38.1538 6.2699Z"
        fill="url(#paint0_linear_159_552)" />
    <path
        d="M0.333344 5.47283V1.43681C0.74586 1.43681 1.13216 1.43681 1.51845 1.43681C3.89566 1.43681 6.27113 1.43331 8.64834 1.43856C9.92085 1.44205 10.5641 1.94721 10.8857 3.19C11.9292 7.20854 12.9745 11.2288 13.9988 15.2526C14.1002 15.6494 14.2435 15.8137 14.6753 15.8661C15.9915 16.0269 17.2972 16.2752 18.6134 16.4482C19.0172 16.5024 19.1867 16.6702 19.3318 17.0443C21.3559 22.2671 25.0424 25.7333 30.5134 26.9744C36.9476 28.4339 42.3173 26.422 46.5369 21.3722C46.9092 20.9282 47.2116 20.7045 47.8181 20.8076C49.9838 21.1747 52.1618 21.4753 54.3327 21.8197C55.1246 21.9455 55.2696 22.1465 55.2539 22.9611C55.1193 30.1556 54.9812 37.3484 54.8414 44.543C54.8274 45.2946 54.5338 45.5288 53.6388 45.5288C42.6704 45.5288 31.7038 45.5341 20.7354 45.5166C20.1498 45.5166 19.7233 45.6757 19.2794 46.062C16.0876 48.836 12.8696 51.5802 9.6604 54.335C9.47862 54.4906 9.24439 54.6287 9.14651 54.8279C9.0224 55.0831 8.89655 55.4432 8.99094 55.6652C9.08183 55.8785 9.44017 56.0078 9.7076 56.1022C9.90337 56.1704 10.1393 56.1197 10.3578 56.1197C25.7957 56.1197 41.2336 56.1197 56.6715 56.1197H57.5455V60.2815H49.8947C50.8316 63.0293 50.4366 64.8472 48.6659 66.1512C47.1277 67.2821 44.983 67.2838 43.4116 66.1512C41.6461 64.8804 41.2511 63.0992 42.1408 60.3287H25.4916C26.432 63.0625 26.0037 64.9276 24.1526 66.2123C22.5375 67.3345 20.3474 67.2489 18.7969 66.0043C17.1504 64.6829 16.7711 62.6657 17.7726 60.3217C17.5279 60.3095 17.3024 60.2885 17.0787 60.2885C14.7015 60.2868 12.326 60.2885 9.94881 60.2868C7.64152 60.2833 5.90581 59.1069 5.15069 57.0426C4.38859 54.9608 4.93919 52.9908 6.70113 51.4631C9.73207 48.836 12.756 46.1983 15.7992 43.5869C16.1645 43.274 16.2467 43.0013 16.1348 42.5364C13.3136 30.7831 10.5082 19.0264 7.6992 7.27147C7.59782 6.84846 7.44575 6.43245 7.39681 6.0042C7.34437 5.53575 7.1014 5.46409 6.69588 5.46758C4.82033 5.48331 2.94478 5.47457 1.07098 5.47457C0.836753 5.47457 0.602529 5.47457 0.335093 5.47457L0.333344 5.47283Z"
        fill="url(#paint1_linear_159_552)" />
    <defs>
        <linearGradient id="paint0_linear_159_552" x1="22.4146" y1="0" x2="45.7675" y2="23.4295"
            gradientUnits="userSpaceOnUse">
            <stop stop-color="#A728E2" />
            <stop offset="1" stop-color="#F4AADC" />
        </linearGradient>
        <linearGradient id="paint1_linear_159_552" x1="0.333344" y1="1.43567" x2="65.2936"
            y2="58.1207" gradientUnits="userSpaceOnUse">
            <stop stop-color="#A728E2" />
            <stop offset="1" stop-color="#F4AADC" />
        </linearGradient>
    </defs>
</svg>    