<svg width="67" height="67" viewBox="0 0 67 67" fill="none" xmlns="http://www.w3.org/2000/svg">
    <path
        d="M56.7839 67C55.3777 66.3861 54.9002 65.2711 54.9894 63.7993C55.0445 62.9309 55.013 62.0546 54.9947 61.1836C54.9737 60.289 54.5696 59.885 53.6698 59.8246C53.452 59.8089 53.2343 59.8194 53.0165 59.8194C38.0361 59.8194 23.0557 59.8194 8.07788 59.8194C7.79979 59.8194 7.52432 59.8194 7.21474 59.8194V33.5105C7.46136 33.5105 7.71321 33.5105 7.96507 33.5105C12.7189 33.5105 17.4728 33.5105 22.2266 33.5105C23.5017 33.5105 23.9267 33.096 23.9267 31.8419C23.9293 27.374 23.9293 22.9035 23.9267 18.4356C23.9267 17.179 23.5017 16.7644 22.2293 16.7644C17.4754 16.7644 12.7216 16.7644 7.9677 16.7644C7.73158 16.7644 7.49809 16.7644 7.21737 16.7644C7.20425 16.5047 7.18326 16.2948 7.18326 16.0823C7.18326 11.6774 7.22785 7.2751 7.15964 2.8728C7.13078 0.973355 8.37173 -0.00260168 10.056 2.18612e-05C25.6897 0.0419985 41.3234 0.0419985 56.9571 2.18612e-05C58.5837 -0.00522522 59.9663 0.934003 59.8194 2.89116C59.7721 3.51294 59.8115 4.13997 59.8115 4.83258C59.4521 4.83258 59.174 4.83258 58.8959 4.83258C48.6247 4.83258 38.3562 4.83258 28.085 4.83258C26.6604 4.83258 26.3167 5.17627 26.3167 6.60347C26.3167 14.1908 26.3167 21.7754 26.3167 29.3627C26.3167 30.7296 26.6971 31.1126 28.064 31.1126C38.3352 31.1126 48.6037 31.1126 58.8749 31.1126H59.7643V40.6964H59.0087C54.6484 40.6964 50.288 40.6964 45.9251 40.6964C44.6815 40.6964 44.2696 41.0925 44.2696 42.3256C44.2644 46.8171 44.2644 51.3086 44.2696 55.7975C44.2696 57.0148 44.6973 57.4267 45.9356 57.4293C50.2749 57.432 54.6142 57.4293 58.9536 57.4293H59.8141C59.8141 57.7127 59.8141 57.9435 59.8141 58.1744C59.8141 60.1158 59.7643 62.0573 59.8299 63.9934C59.8797 65.46 59.3655 66.4779 57.9645 66.9948H56.7865L56.7839 67ZM25.6845 52.6256C30.5459 52.6256 35.4047 52.6256 40.2661 52.6256C41.4572 52.6256 41.8691 52.2111 41.8691 51.0121C41.8691 46.5233 41.8691 42.0344 41.8691 37.5455C41.8691 36.357 41.4441 35.9137 40.2714 35.9137C30.5721 35.9084 20.8729 35.9084 11.1737 35.9137C9.9957 35.9137 9.5733 36.3492 9.57068 37.5429C9.56805 42.0318 9.56805 46.5206 9.57068 51.0095C9.57068 52.219 9.97996 52.6282 11.1684 52.6282C16.0062 52.6282 20.8467 52.6282 25.6845 52.6282V52.6256ZM9.60741 9.5261H23.89V7.26723H9.60741V9.5261ZM14.4347 2.45041V4.74601H16.7093V2.45041H14.4347ZM11.9109 2.47927H9.6179V4.7224H11.9109V2.47927ZM19.1466 4.74076H21.4527V2.42155C20.7785 2.42155 20.1514 2.39794 19.5296 2.43992C19.3932 2.44779 19.1702 2.67341 19.1623 2.80984C19.123 3.43161 19.144 4.05602 19.144 4.74338L19.1466 4.74076Z"
        fill="url(#paint0_linear_159_533)" />
    <path
        d="M0 62.1595C0.283342 62.17 0.56668 62.1858 0.847399 62.1858C17.7902 62.1858 34.733 62.1858 51.6759 62.1858H52.6203C52.6938 63.8334 52.4367 65.4967 53.25 66.9974H1.83123C0.94447 66.6642 0.33319 66.0529 0 65.1661C0 64.1639 0 63.1591 0 62.1569V62.1595Z"
        fill="url(#paint1_linear_159_533)" />
    <path
        d="M0 19.123C6.90516 19.1282 13.8129 19.1335 20.7181 19.1361C20.9726 19.1361 21.2271 19.1361 21.5209 19.1361V31.1572H0V19.123ZM10.83 21.1903C10.0272 23.5987 9.24536 25.9521 8.4478 28.3395C9.22962 28.5992 9.9406 28.838 10.6962 29.0872C11.4964 26.6867 12.2808 24.3307 13.0757 21.9433C12.3202 21.6888 11.6249 21.4553 10.83 21.1903ZM6.79759 23.7404C6.17056 23.0819 5.65111 22.5336 5.13165 21.9879C4.32359 22.7776 3.51029 23.5332 2.74684 24.3333C2.3297 24.7715 2.24837 25.3749 2.67076 25.8183C3.47619 26.663 4.36819 27.4239 5.15787 28.1585C5.64848 27.6888 6.1968 27.1668 6.87105 26.5187C6.35422 26.0649 5.83475 25.6084 5.25757 25.102C5.80589 24.6141 6.30961 24.1681 6.79759 23.7378V23.7404ZM16.4968 22.0456C15.9039 22.6202 15.3635 23.1423 14.7233 23.7614C15.2008 24.2022 15.7071 24.6718 16.2791 25.1991C15.7465 25.6871 15.2375 26.1541 14.7784 26.5765C15.353 27.193 15.8646 27.7439 16.3998 28.3185C17.2104 27.5157 18.0342 26.7444 18.8003 25.9232C19.2804 25.409 19.2463 24.8239 18.7373 24.2861C17.9922 23.4991 17.2052 22.7513 16.4995 22.0482L16.4968 22.0456Z"
        fill="url(#paint2_linear_159_533)" />
    <path
        d="M66.9659 7.24621V23.0426C66.7377 22.9271 66.5461 22.8432 66.3677 22.7382C64.5155 21.6809 62.6528 20.6394 60.8189 19.5532C60.1499 19.1571 59.5597 19.1309 58.8644 19.5008C56.3484 20.8362 53.801 22.1191 51.2824 23.4518C50.8233 23.6958 50.4953 23.7037 50.0467 23.4072C46.8985 21.3399 43.7161 19.3197 40.5731 17.2445C39.8175 16.7461 39.201 16.7172 38.4218 17.1947C35.4178 19.0417 32.3824 20.8362 29.3575 22.649C29.1764 22.7566 28.9875 22.8537 28.7304 22.9953V7.24359H66.9659V7.24621ZM54.4385 17.9529C56.7026 17.945 58.6021 16.0482 58.6099 13.7867C58.6178 11.5278 56.7315 9.63364 54.4516 9.60478C52.1849 9.57592 50.2146 11.5462 50.2487 13.8077C50.2802 16.0823 52.1796 17.9581 54.4411 17.9503L54.4385 17.9529Z"
        fill="url(#paint3_linear_159_533)" />
    <path
        d="M66.9869 28.754H66.2183C53.9689 28.754 41.717 28.7488 29.4677 28.7671C28.8459 28.7671 28.7331 28.5913 28.6491 27.9827C28.4288 26.3692 29.0348 25.4667 30.4804 24.6901C33.3715 23.137 36.142 21.353 38.9492 19.6451C39.3165 19.4221 39.5709 19.4194 39.9356 19.6582C43.1416 21.7544 46.3712 23.8191 49.5745 25.9232C50.2409 26.3613 50.8102 26.3771 51.508 26.0072C54.0817 24.6403 56.6843 23.3259 59.2659 21.9695C59.6384 21.7728 59.9034 21.7649 60.2759 21.9826C62.3433 23.1895 64.4264 24.3701 66.5121 25.5428C66.8531 25.7343 67.0158 25.9416 66.9948 26.3508C66.9581 27.1274 66.9843 27.9066 66.9843 28.7592L66.9869 28.754Z"
        fill="url(#paint4_linear_159_533)" />
    <path
        d="M66.9606 43.1205V55.0262H46.6885V43.1205H66.9606ZM64.5627 50.2881H53.898V52.5784H64.5627V50.2881ZM53.8954 47.7563C53.9531 47.7905 53.9715 47.8141 53.9899 47.8141C57.4031 47.8298 60.8137 47.8482 64.2269 47.8455C64.3476 47.8455 64.568 47.6383 64.5759 47.5176C64.61 46.8722 64.5916 46.2242 64.5916 45.5499H53.898V47.759L53.8954 47.7563ZM49.0943 47.8193H51.3794V45.5552H49.0943V47.8193ZM51.3952 50.309H49.0917V52.5915H51.3952V50.309Z"
        fill="url(#paint5_linear_159_533)" />
    <path
        d="M39.4819 38.3195V50.2041H11.9872V38.3195H39.4819ZM14.4166 47.8141H28.644V45.5368H14.4166V47.8141ZM21.5893 43.034H32.2593V40.7462H21.5893V43.034ZM31.1731 45.5368V47.8141H37.0183V45.5368H31.1731ZM19.0917 40.7462H14.4297V43.0235H19.0917V40.7462ZM37.0289 40.7384H34.7359V43.0208H37.0289V40.7384Z"
        fill="url(#paint6_linear_159_533)" />
    <path
        d="M54.4333 15.5812C53.4442 15.5812 52.5995 14.7312 52.6204 13.75C52.6388 12.7924 53.4731 11.9713 54.4281 11.9686C55.4066 11.9686 56.2646 12.8344 56.2436 13.8077C56.2226 14.7706 55.3988 15.5786 54.4359 15.5786L54.4333 15.5812Z"
        fill="url(#paint7_linear_159_533)" />
    <defs>
        <linearGradient id="paint0_linear_159_533" x1="7.15915" y1="0" x2="72.266" y2="51.1857"
            gradientUnits="userSpaceOnUse">
            <stop stop-color="#4FFFC0" />
            <stop offset="1" stop-color="#00B2FF" />
        </linearGradient>
        <linearGradient id="paint1_linear_159_533" x1="0" y1="62.1569" x2="0.872782" y2="71.7585"
            gradientUnits="userSpaceOnUse">
            <stop stop-color="#4FFFC0" />
            <stop offset="1" stop-color="#00B2FF" />
        </linearGradient>
        <linearGradient id="paint2_linear_159_533" x1="0" y1="19.123" x2="10.2528" y2="37.4582"
            gradientUnits="userSpaceOnUse">
            <stop stop-color="#4FFFC0" />
            <stop offset="1" stop-color="#00B2FF" />
        </linearGradient>
        <linearGradient id="paint3_linear_159_533" x1="28.7304" y1="7.24359" x2="40.5993"
            y2="34.9339" gradientUnits="userSpaceOnUse">
            <stop stop-color="#4FFFC0" />
            <stop offset="1" stop-color="#00B2FF" />
        </linearGradient>
        <linearGradient id="paint4_linear_159_533" x1="28.6051" y1="19.4785" x2="32.8512"
            y2="37.0284" gradientUnits="userSpaceOnUse">
            <stop stop-color="#4FFFC0" />
            <stop offset="1" stop-color="#00B2FF" />
        </linearGradient>
        <linearGradient id="paint5_linear_159_533" x1="46.6885" y1="43.1205" x2="57.0864"
            y2="60.8253" gradientUnits="userSpaceOnUse">
            <stop stop-color="#4FFFC0" />
            <stop offset="1" stop-color="#00B2FF" />
        </linearGradient>
        <linearGradient id="paint6_linear_159_533" x1="11.9872" y1="38.3195" x2="20.644"
            y2="58.3468" gradientUnits="userSpaceOnUse">
            <stop stop-color="#4FFFC0" />
            <stop offset="1" stop-color="#00B2FF" />
        </linearGradient>
        <linearGradient id="paint7_linear_159_533" x1="52.6201" y1="11.9686" x2="56.2327"
            y2="15.5925" gradientUnits="userSpaceOnUse">
            <stop stop-color="#4FFFC0" />
            <stop offset="1" stop-color="#00B2FF" />
        </linearGradient>
    </defs>
</svg>    